<?xml version="1.0" standalone="no"?>
<!DOCTYPE svg PUBLIC "-//W3C//DTD SVG 1.1//EN" "http://www.w3.org/Graphics/SVG/1.1/DTD/svg11.dtd" >
<svg xmlns="http://www.w3.org/2000/svg">
<metadata>
<json>
{
	"fontFamily": "icon-small",
	"majorVersion": 1,
	"minorVersion": 0,
	"version": "Version 1.0",
	"fontId": "icon-small",
	"psName": "icon-small",
	"subFamily": "Regular",
	"fullName": "icon-small",
	"description": "Generated by IcoMoon"
}
</json>
</metadata>
<defs>
<font id="icon-small" horiz-adv-x="512">
<font-face units-per-em="512" ascent="480" descent="-32" />
<missing-glyph horiz-adv-x="512" />
<glyph unicode="&#x20;" d="" horiz-adv-x="256" />
<glyph unicode="&#x21;" d="M188.657 192.337c-23.688 23.688-38.376 56.001-38.376 92.158s14.688 68.486 38.375 92.158c23.688 23.688 56.001 38.407 92.189 38.407 36.125 0 68.438-14.719 92.126-38.407 23.704-23.672 38.11-56 38.11-92.158 0-36.157-14.407-68.469-38.11-92.158-23.688-23.688-56-38.063-92.126-38.063-36.188 0-68.5 14.375-92.189 38.063zM584.523 41.272l-138.565 138.565c19.219 30.421 30.719 66.267 30.719 104.658 0 108.159-87.688 195.847-195.831 195.847-108.189 0-195.878-87.689-195.878-195.847 0-108.158 87.689-195.846 195.878-195.846 38.375 0 74.219 11.531 104.642 30.75l138.565-138.565c16.625-16.656 43.813-16.656 60.469 0 16.657 16.625 16.657 43.813 0 60.438zM205.533 264.433c-8.438 0-15.313 7.531-15.313 16.828v6.266c0 9.297 6.875 16.813 15.313 16.813h150.659c8.437 0 15.313-7.516 15.313-16.813v-6.266c0-9.297-6.875-16.828-15.313-16.828h-150.659z" horiz-adv-x="683" />
<glyph unicode="&#x22;" d="M188.66 192.341c-23.688 23.687-38.374 56-38.374 92.156s14.688 68.484 38.375 92.156c23.687 23.687 56 38.406 92.188 38.406 36.126 0 68.438-14.719 92.125-38.406 23.704-23.672 38.109-56 38.109-92.156s-14.407-68.469-38.109-92.156c-23.688-23.687-56-38.094-92.125-38.094-36.187 0-68.5 14.407-92.188 38.094zM584.519 41.31l-138.562 138.562c19.219 30.391 30.719 66.233 30.719 104.625 0 108.156-87.687 195.844-195.827 195.844-108.189 0-195.875-87.687-195.875-195.844 0-108.157 87.688-195.844 195.875-195.844 38.375 0 74.219 11.531 104.639 30.719l138.565-138.565c16.625-16.625 43.812-16.625 60.468 0 16.654 16.659 16.654 43.846-0.002 60.502zM356.75 303.594h-56.762v56.763c0 7.28-6.561 13.181-14.655 13.181h-8.887c-8.094 0-14.655-5.901-14.655-13.181v-56.763h-56.763c-7.28 0-13.181-6.561-13.181-14.655v-8.887c0-8.094 5.901-14.655 13.181-14.655h56.763v-56.762c0-7.281 6.561-13.182 14.655-13.182h8.887c8.094 0 14.655 5.901 14.655 13.182v56.762h56.762c7.281 0 13.182 6.561 13.182 14.655v8.887c0 8.094-5.901 14.655-13.182 14.655z" horiz-adv-x="683" />
<glyph unicode="&#x23;" d="M171.955 167.952c-13.028-10.39-15.153-29.438-4.722-42.505 5.982-7.399 14.758-11.335 23.613-11.335 6.651 0 13.303 2.204 18.892 6.691 50.101 40.065 151.561 93.471 267.545 1.338 13.026-10.39 32.115-8.186 42.466 4.88 10.39 13.067 8.226 32.115-4.841 42.425-154.553 122.833-291.315 39.869-342.952-1.495zM104.813 273.231c-13.775-9.446-17.278-28.257-7.871-42.032 9.445-13.774 28.179-17.317 42.032-7.871 80.563 55.177 240.547 128.302 406.827-2.676 5.549-4.408 12.122-6.454 18.655-6.454 8.973 0 17.828 3.935 23.771 11.492 10.351 13.144 8.068 32.114-5.038 42.426-204.023 160.692-402.537 57.067-478.377 5.116zM648.64 369.182c-267.034 193.26-499.708 89.615-614.629 10.626-13.775-9.445-17.238-28.258-7.793-42.032 9.485-13.775 28.297-17.238 42.032-7.792 101.776 69.995 308.003 161.734 544.968-9.761 5.353-3.897 11.533-5.746 17.672-5.746 9.367 0 18.615 4.329 24.519 12.476 9.799 13.538 6.769 32.43-6.77 42.23zM344.454 98.213c-36.129 0-65.45-29.281-65.45-65.411s29.32-65.409 65.45-65.409c36.13 0 65.45 29.281 65.45 65.409s-29.32 65.411-65.45 65.411z" horiz-adv-x="683" />
<glyph unicode="&#x24;" d="M425.743 376.91h-285.394c-10.945 0-19.778-8.833-19.778-19.762v-369.007c0-10.976 8.833-19.825 19.778-19.825h285.393c10.913 0 19.731 8.849 19.731 19.825v369.007c0 10.928-8.817 19.762-19.73 19.762zM364.892 46.427h-164.256c-10.944 0-19.762 8.881-19.762 19.825 0 10.913 8.818 19.731 19.762 19.731h164.256c10.945 0 19.793-8.818 19.793-19.731 0-10.944-8.849-19.825-19.793-19.825zM364.892 149.615h-164.256c-10.944 0-19.762 8.786-19.762 19.762 0 10.913 8.818 19.793 19.762 19.793h164.256c10.945 0 19.793-8.881 19.793-19.793 0-10.975-8.849-19.762-19.793-19.762zM364.892 252.772h-164.256c-10.944 0-19.762 8.849-19.762 19.777 0 10.945 8.818 19.762 19.762 19.762h164.256c10.945 0 19.793-8.818 19.793-19.762 0-10.929-8.849-19.777-19.793-19.777zM542.97 480.316h-285.377c-10.944 0-19.778-8.849-19.778-19.777v-50.922h187.927c28.674 0 51.938-23.342 51.938-51.968v-285.956h65.29c10.944 0 19.762 8.818 19.762 19.793v369.053c-0 10.929-8.818 19.777-19.763 19.777z" horiz-adv-x="683" />
<glyph unicode="&#x25;" d="M569.849 252.167c0 125.815-102.359 228.174-228.174 228.174s-228.174-102.359-228.174-228.174c0-109.256 77.246-200.763 179.949-222.967v-36.841h-59.858c-6.63 0-12.010-5.38-12.010-12.010s5.38-12.010 12.010-12.010h216.165c6.63 0 12.010 5.38 12.010 12.010s-5.38 12.010-12.010 12.010h-60.233v36.778c102.892 22.017 180.325 113.649 180.325 223.029zM182.867 252.167c0 87.708 71.117 158.793 158.84 158.793 87.692 0 158.778-71.086 158.778-158.793 0-87.676-71.086-158.793-158.778-158.793-87.724 0-158.839 71.117-158.839 158.793zM456.106 249.415c0.25 10.321-1.063 20.484-3.565 30.352-10.789-16.575-29.397-27.599-50.632-27.599-33.37 0-60.421 27.067-60.421 60.421 0 20.015 9.851 37.623 24.832 48.615-7.287 1.532-14.635 2.532-23.987 2.736-61.547 0-113.149-48.881-114.995-108.927-0.97-29.429 9.664-57.481 29.96-78.982 20.985-22.236 49.726-34.87 80.843-35.621 0.125 0 2.877 0 3.002 0 62.423 0 112.931 47.817 114.964 109.005zM341.144 156.233l-0.031 0.25h0.031v-0.25z" horiz-adv-x="683" />
<glyph unicode="&#x26;" d="M597.456 227.127c0 30.595-15.337 52.849-44.508 52.849 22.255 22.255 29.171 51.504 13.896 73.758-13.896 22.255-44.476 37.559-73.648 29.202 15.306 22.255 0 52.897-22.255 66.778-22.255 15.321-51.425 8.373-73.648-13.882-8.357 29.203-30.611 44.508-52.834 44.508-29.187 0-51.441-15.305-58.389-44.508-15.305 22.255-44.477 29.202-75.056 13.882-22.255-13.882-29.203-44.524-22.255-66.778-29.171 8.357-51.394-6.949-66.7-29.202-13.912-22.255-6.949-51.504 8.342-73.758-22.255 0-44.508-22.255-44.508-52.849 0-29.219 22.255-51.457 44.508-58.437-15.29-15.305-22.255-44.508-8.341-75.151 15.305-22.192 37.528-29.202 66.7-22.192-6.949-29.265 0-51.551 22.255-66.856 30.579-13.897 59.751-6.949 75.057 8.356 6.948-22.255 29.202-44.508 58.389-44.508 22.223 0 44.476 22.255 52.834 44.508 22.223-15.305 51.394-22.255 73.648-8.356 22.255 15.305 37.56 37.591 22.255 66.856 29.171-7.012 59.751 0 73.648 22.192 15.274 30.643 8.357 59.846-13.896 75.15 29.17 6.981 44.507 29.218 44.507 58.437zM466.248 295.22l-147.938-173.291c-4.773-5.603-11.565-8.514-18.451-8.514-5.227 0-10.501 1.659-14.899 5.134l-70.080 54.524c-10.564 8.201-12.458 23.475-4.24 34.070 8.216 10.563 23.49 12.488 34.085 4.24l51.739-40.283 132.882 155.669c8.702 10.141 24.007 11.409 34.211 2.676 10.171-8.685 11.393-24.022 2.691-34.225z" horiz-adv-x="683" />
<glyph unicode="&#x27;" d="M616.265 404.807l-423.635-0.696v15.74c-0.037 14.091-9.077 26.647-22.437 31.094l-82.684 27.653c-17.349 5.856-35.87-3.532-41.581-20.699-5.71-17.185 3.55-35.797 20.717-41.543l60.321-20.168 0.366-395.050c0.037-18.156 14.714-32.796 32.832-32.796 0.037 0 0.037 0 0.037 0 18.118 0 32.796 14.714 32.796 32.868l-0.073 93.263 143.629-0.073v-41.507c0-3.147 2.489-5.563 5.49-5.563h254.935c3.074 0 5.527 2.416 5.527 5.563v41.507h13.762c12.591 0 22.84 10.249 22.84 22.767v264.745c0 12.647-10.248 22.896-22.84 22.896zM456.094 112.995c-65.481 0-118.591 53.147-118.591 118.611 0 65.481 53.11 118.573 118.591 118.573 65.482 0 118.592-53.091 118.592-118.573 0-65.464-53.11-118.611-118.592-118.611zM494.673 231.605c-21.303 0-38.579 17.276-38.579 38.579 0 10.029 4.026 18.961 10.285 25.787-3.367 0.549-6.772 1.043-10.285 1.043-36.163 0-65.445-29.245-65.445-65.409 0-36.126 29.283-65.463 65.445-65.463 36.163 0 65.445 29.337 65.445 65.464 0 3.513-0.513 6.917-1.024 10.322-6.88-6.26-15.812-10.322-25.841-10.322z" horiz-adv-x="683" />
<glyph unicode="&#x28;" d="M598.997 236.75h-415.312l390.090 142.542c3.128 1.152 5.696 3.524 7.112 6.553 1.416 3.063 1.581 6.519 0.428 9.681l-27.856 76.194c-2.404 6.585-9.615 10.010-16.233 7.54l-457.229-167.073c-3.128-1.153-5.696-3.523-7.112-6.552-1.416-3.063-1.581-6.519-0.428-9.681l27.099-74.119v-241.127c0-6.981 5.663-12.644 12.644-12.644h486.798c6.981 0 12.644 5.663 12.644 12.644v243.398c0 6.981-5.663 12.644-12.644 12.644zM431.003 392.595l6.322 21.073c4.017 13.336 18.045 20.909 31.511 16.957 13.368-4.017 20.942-18.11 16.958-31.511l-6.322-21.074c-3.293-10.932-13.335-18.011-24.235-18.011-2.404 0-4.841 0.329-7.276 1.054-13.37 4.017-20.942 18.111-16.958 31.512zM312.432 362.894c2.733 13.697 16.068 22.523 29.767 19.822 13.697-2.732 22.555-16.068 19.822-29.766l-4.215-21.073c-2.404-12.018-12.974-20.316-24.761-20.316-1.647 0-3.326 0.164-5.005 0.494-13.697 2.733-22.556 16.069-19.822 29.767l4.215 21.072zM184.443 301.979l6.322 21.074c4.018 13.335 18.044 20.975 31.512 16.958 13.369-4.017 20.941-18.11 16.958-31.512l-6.322-21.073c-3.292-10.932-13.336-18.012-24.234-18.012-2.404 0-4.84 0.329-7.276 1.054-13.369 4.017-20.942 18.109-16.958 31.511zM544.8 17.981h-378.599c-9.319 0-16.859 7.54-16.859 16.858 0 9.317 7.541 16.858 16.859 16.858h172.539v118.243c0 9.319 7.54 16.858 16.858 16.858 9.317 0 16.858-7.54 16.858-16.858v-118.242h172.342c9.317 0 16.859-7.541 16.859-16.858 0-9.319-7.54-16.859-16.858-16.859z" horiz-adv-x="683" />
<glyph unicode="&#x29;" d="M347.242 480c68.614 0 124.108-55.557 124.108-123.983 0-68.519-55.494-124.013-124.108-124.013-68.504 0-123.935 55.494-123.935 124.013 0 68.425 55.431 123.982 123.935 123.982zM585.1-32h-487.533v89.832c0 68.425 55.62 124.108 124.139 124.108h239.224c68.55 0 124.171-55.681 124.171-124.108v-89.832z" horiz-adv-x="683" />
<glyph unicode="&#x2a;" d="M482.474 271.526h-281.6c-6.651 0-12.047-5.396-12.047-12.047v-279.090c0-6.651 5.397-12.047 12.047-12.047h281.6c6.651 0 12.047 5.396 12.047 12.047v279.090c0 6.651-5.396 12.047-12.047 12.047zM532.419 402.036h-91.075c0.533 1.976 1.224 3.89 1.224 6.023v48.189c0 13.302-10.793 24.094-24.094 24.094h-153.599c-13.302 0-24.094-10.793-24.094-24.094v-50.196c0-1.428 0.565-2.667 0.816-4.016h-90.667c-6.651 0-12.047-5.396-12.047-12.047v-56.22c0-6.651 5.396-12.047 12.047-12.047h381.49c6.65 0 12.047 5.396 12.047 12.047v56.219c0 6.651-5.396 12.046-12.047 12.046zM288.968 406.052v26.102h105.412v-24.094c0-2.133 0.69-4.047 1.224-6.023h-107.45c0.25 1.349 0.815 2.588 0.815 4.015z" horiz-adv-x="683" />
<glyph unicode="&#x2b;" d="M458.452 480.341h-233.588c-8.911 0-16.129-7.217-16.129-16.144v-479.726c0-8.943 7.217-16.13 16.129-16.13h233.588c8.912 0 16.13 7.185 16.13 16.13v479.726c0 8.927-7.218 16.144-16.13 16.144zM341.831 58.618c-26.594 0-48.074 21.464-48.074 48.074 0 26.579 21.478 48.136 48.074 48.136 26.594 0 48.151-21.558 48.151-48.136 0-26.609-21.556-48.074-48.151-48.074zM391.645 348.721h-99.927c-12.551 0-22.734 10.183-22.734 22.75s10.183 22.75 22.734 22.75h99.927c12.584 0 22.75-10.183 22.75-22.75s-10.166-22.75-22.75-22.75z" horiz-adv-x="683" />
<glyph unicode="&#x2c;" d="M667.44 455.935h-651.572c-8.598 0-15.527-6.97-15.527-15.611v-203.348h682.667v203.347c0 8.641-7.011 15.611-15.568 15.611zM0.342 8.357c0-8.598 6.928-15.61 15.527-15.61h291.665v175.8h-307.192v-160.19zM375.9-7.252h291.54c8.556 0 15.568 7.012 15.568 15.61v160.19h-307.108v-175.8z" horiz-adv-x="683" />
<glyph unicode="&#x2d;" d="M481.617 184.305c-3.296 4.478-7.682 7.060-13.187 7.681l-110.435 12.643c-7.962 10.885-8.988 31.069-9.719 47.334-0.28 4.354-0.467 8.49-0.809 12.051-1.913 21.505-3.358 44.909-4.479 71.515l-0.062 1.663c-0.498 13.357-1.508 41.084-20.37 41.145-22.221 0-25.44-15.192-25.673-30.011l-3.156-189.711c0.094-2.519 0.187-4.666 0.28-6.531-5.769 7.371-14.663 19.811-20.743 28.301-6.998 9.827-10.745 14.913-11.88 16.188-14.57 15.363-26.886 22.159-38.517 20.495-11.119-1.617-18.272-5.94-21.241-12.752-5.023-11.616 3.297-27.476 11.149-38.734 13.855-19.873 27.399-40.058 40.959-60.21 21.599-32.157 43.882-65.341 67.099-96.877 18.24-24.817 47.474-40.181 76.382-40.181 21.615 0 41.3 8.241 57.006 23.853 9.144 9.082 12.565 15.767 14.462 28.519l10.604 70.255c0.405 2.395 1.12 6.002 1.959 10.325 4.571 22.952 13.030 65.715 0.372 83.037zM217.858 283.233c0.249-0.342 0.529-0.7 0.809-1.041l1.477-1.944 0.311 0.093c2.908-2.535 6.609-3.981 10.528-3.981 8.88 0 16.111 7.215 16.111 16.111 0 3.421-1.058 6.686-3.126 9.5-11.881 15.986-18.178 34.816-18.178 54.534 0 50.568 41.145 91.683 91.714 91.683 50.553 0 91.683-41.115 91.683-91.683 0-17.369-5.038-34.381-14.524-49.247-1.928-2.721-2.923-5.94-2.923-9.268 0-8.894 7.215-16.11 16.142-16.11 6.469 0 12.315 3.856 14.368 8.957 12.502 19.779 19.096 42.498 19.096 65.668 0 68.281-55.575 123.809-123.841 123.809-68.281 0-123.841-55.529-123.841-123.809 0-26.202 8.179-51.299 23.636-72.525l0.559-0.746z" horiz-adv-x="683" />
<glyph unicode="&#x2e;" d="M446.096-28.589c-0.563 53.203-53.767 53.203-79.429 53.203h-50.793c-25.788 0-79.459 0-79.459-54.017 0-1.439 1.189-2.598 2.629-2.598h44.472c1.409 0 2.598 1.158 2.598 2.598 0 15.366 4.476 22.126 47.538 22.126h15.21c43.063 0 47.57-6.76 47.57-22.126 0-1.439 1.158-2.598 2.598-2.598h44.473c0.062 0 0.094 0 0.156 0 1.409 0 2.598 1.158 2.598 2.598-0.002 0.282-0.065 0.563-0.159 0.813zM295.657 82.48h91.76c6.603 0 11.987 5.383 11.987 12.017v373.485c0 6.635-5.384 12.017-11.987 12.017h-91.76c-6.635 0-11.986-5.383-11.986-12.017v-373.486c0-6.634 5.351-12.017 11.986-12.017z" horiz-adv-x="683" />
<glyph unicode="&#x2f;" d="M667.009 459.507h-650.667c-8.834 0-16-7.166-16-16v-438.334c0-8.833 7.167-16 16-16h650.667c8.833 0 16 7.166 16 16v438.334c-0 8.833-7.168 16-16 16zM380.341 48.382h-77.334c-17.666 0-32 14.334-32 32s14.334 32 32 32h77.333c17.666 0 32-14.334 32-32s-14.332-32-32-32z" horiz-adv-x="683" />
<glyph unicode="&#x30;" d="M562.38 447.764c-142.719 43.467-298.819 43.436-441.443 0-6.675-2.037-11.251-8.211-11.251-15.231l0.219-172.742c0.094-87.985 31.873-161.131 94.299-217.228 50.331-45.129 105.958-65.374 127.112-71.829 2.382-0.815 4.294-1.379 5.892-1.818 1.379-0.376 2.82-0.564 4.199-0.564 1.505 0 3.040 0.25 4.513 0.69 1.598 0.439 3.604 1.19 5.892 2.005 6.3 2.194 15.356 5.704 26.231 10.53 19.68 8.775 49.453 24.069 79.664 47.447 76.781 59.607 115.768 137.266 115.893 230.798l0.063 172.742c0 6.988-4.576 13.162-11.283 15.199zM324.923 88.947c-1.974-2.57-3.322-4.387-6.017-3.949-2.758 0.376-4.701 2.821-4.575 5.579l32.216 120.139-62.115-0.063c-2.256 0.063-3.98-0.125-5.39 1.222-1.505 1.409-2.1 3.447-1.505 5.421l108.308 147.137c2.507 3.291 3.291 4.356 6.048 3.917 2.726-0.376 4.638-2.821 4.638-5.516l-31.841-112.194 54.060-0.125c1.912 0.376 3.824-0.125 5.234-1.536 1.253-1.411 1.849-3.353 1.316-5.234l-100.379-154.798z" horiz-adv-x="683" />
<glyph unicode="&#x31;" d="M586.316 384.053c-1.534 3.695-4.822 6.404-8.768 7.187-3.976 0.798-7.984-0.439-10.833-3.257l-52.229-51.93h-10.771l-50.881 51.821c-3.162 3.242-3.194 8.924-0.564 11.632l54.421 48.831c2.567 2.285 4.007 6.371 4.007 9.784v5.761c0 5.776-4.101 10.724-9.769 11.804-58.49 11.194-95.939 1.879-114.538-24.501-35.101-35.743-45.089-86.812-26.583-132.277l-263.708-254.251c-11.116-11.273-11.116-33.316 0.72-45.276l47.751-40.706c5.731-6.951 12.274-10.333 20.008-10.333 6.263 0 12.963 2.192 22.357 7.452 1.127 0.627 2.129 1.378 2.975 2.317l249.398 267.966c47.124-20.666 98.444-12.602 123.9 19.601 29.933 31.922 39.203 79.485 23.107 118.375z" horiz-adv-x="683" />
<glyph unicode="&#x32;" d="M525.866 408.587c-2.385 56.537-116.964 71.754-185.11 71.754-66.717 0-177.831-14.668-184.732-68.286l-0.125-378.078c0.643-6.274 3.373-12.173 8.314-16.158 2.51-2.039 62.796-49.415 171.791-49.415l4.111 0.031 6.777-0.094c56.113 0 153.751 8.346 177.345 64.349 1.004 2.416 1.38 5.051 1.538 7.719l0.313 11.89v356.288h-0.22zM340.757 432.84c76.459 0 122.486-16.394 135.318-25.994-12.832-9.586-58.89-25.978-135.318-25.978-76.428 0-122.501 16.394-135.396 25.978 12.894 9.632 58.968 25.994 135.396 25.994zM481.125 186.707c-46.904-29.366-93.277-39.344-134.581-39.344-84.555 0-148.056 41.76-151.963 44.332-10.353 7.012-13.083 21.021-6.149 31.375 6.903 10.4 20.911 13.24 31.391 6.258 4.863-3.201 119.756-77.824 237.238-4.251 10.668 6.651 24.629 3.373 31.218-7.17 6.621-10.604 3.421-24.582-7.152-31.202z" horiz-adv-x="683" />
<glyph unicode="&#x33;" d="M180.175 367.092c-34.243 0-62.093-27.848-62.093-62.092 0-34.243 27.849-62.093 62.093-62.093 34.207 0 62.056 27.848 62.056 62.093 0 34.244-27.849 62.092-62.056 62.092zM301.854 480.341h-243.357c-7.794 0-14.097-6.322-14.097-14.097v-483.806c0-7.776 6.303-14.097 14.097-14.097h243.357c7.793 0 14.097 6.322 14.097 14.097v483.806c0 7.776-6.303 14.097-14.097 14.097zM180.175 205.339c-54.971 0-99.66 44.69-99.66 99.661s44.689 99.661 99.66 99.661c54.935 0 99.625-44.69 99.625-99.661s-44.69-99.661-99.625-99.661zM503.173 366.347c-33.789 0-61.33-27.521-61.33-61.348s27.541-61.348 61.33-61.348c33.826 0 61.366 27.522 61.366 61.348s-27.541 61.348-61.366 61.348zM624.851 480.341h-243.356c-7.776 0-14.097-6.322-14.097-14.097v-483.806c0-7.776 6.322-14.097 14.097-14.097h243.356c7.775 0 14.097 6.322 14.097 14.097v483.806c0 7.776-6.322 14.097-14.097 14.097zM503.173 206.065c-54.536 0-98.897 44.363-98.897 98.934s44.361 98.934 98.897 98.934c54.571 0 98.934-44.363 98.934-98.934s-44.362-98.934-98.934-98.934z" horiz-adv-x="683" />
<glyph unicode="&#x34;" d="M341.597 480.403c-141.17 0-255.984-114.845-255.984-255.985 0-141.171 114.814-256.015 255.984-256.015s256.015 114.845 256.015 256.015c0 141.139-114.845 255.985-256.015 255.985zM341.597 16.945c-114.371 0-207.442 93.070-207.442 207.474 0 114.371 93.070 207.442 207.442 207.442 114.404 0 207.474-93.070 207.474-207.442 0-114.403-93.070-207.474-207.474-207.474zM341.629 312.085c-48.416 0-87.698-39.252-87.698-87.667 0-48.447 39.283-87.73 87.698-87.73 48.447 0 87.666 39.283 87.666 87.73 0 48.416-39.22 87.666-87.666 87.666z" horiz-adv-x="683" />
<glyph unicode="&#x35;" d="M521.27 171.292v108.045c20.655 8.184 35.3 28.228 35.3 51.762 0 30.731-25.036 55.737-55.767 55.737-13.144 0-25.099-4.789-34.707-12.471l-70.507 40.745c0.438 2.863 0.876 5.742 0.876 8.762 0 30.731-24.974 55.751-55.721 55.751s-55.767-25.019-55.767-55.751c0-3.020 0.438-5.916 0.892-8.779l-69.819-40.308c-9.452 7.433-21.233 12.048-34.19 12.048-30.748 0-55.767-25.004-55.767-55.736 0-23.080 14.099-42.921 34.143-51.387v-108.796c-20.044-8.512-34.143-28.289-34.143-51.385 0-30.793 25.019-55.83 55.767-55.83 12.065 0 23.205 4.006 32.328 10.578l71.68-41.373c-0.454-2.879-0.892-5.82-0.892-8.825 0-30.733 25.019-55.705 55.767-55.705s55.721 24.973 55.721 55.705c0 3.003-0.439 5.946-0.876 8.762l72.448 41.873c9.231-6.822 20.497-11.016 32.765-11.016 30.731 0 55.766 25.036 55.766 55.83 0 23.535-14.645 43.563-35.3 51.763zM199.905 171.98v106.621c5.915 2.050 11.329 5.008 16.148 8.794l70.163-40.496c-2.926-7.072-4.584-14.803-4.584-22.924 0-25.692 16.445-47.552 39.274-55.877v-92.069c-5.555-2.128-10.593-5.133-15.115-8.889l-69.63 40.183c0.892 3.943 1.44 8.011 1.44 12.204-0 24.348-15.867 44.877-37.695 52.45zM340.746 368.104c13.284 0 25.365 4.882 34.942 12.69l70.319-40.604c-0.469-2.973-0.908-5.978-0.908-9.091 0-3.13 0.439-6.118 0.908-9.107l-29.354-16.915-48.476-28.024c-8.136 4.1-17.149 6.635-26.835 6.635-9.921 0-19.152-2.661-27.414-6.98l-77.329 44.643c0.579 3.177 1.001 6.415 1.001 9.749 0 3.333-0.423 6.556-1.001 9.748l69.209 39.933c9.577-7.792 21.625-12.675 34.941-12.675zM360.572 76.031v91.694c23.502 8.073 40.495 30.089 40.495 56.251 0 8.341-1.752 16.257-4.849 23.471l69.88 40.371c4.664-3.724 9.796-6.728 15.522-8.841v-107.372c-21.279-7.886-36.52-28.166-36.52-52.075 0-4.006 0.439-7.886 1.22-11.642l-70.63-40.746c-4.538 3.755-9.545 6.76-15.115 8.889z" horiz-adv-x="683" />
<glyph unicode="&#x36;" d="M549.009 157.562l-76.497-63.945c-0.222 0-0.37 0.038-0.592 0.038l-281.363 375.151c-5.369 7.146-13.81 11.367-22.771 11.367h-99.823c-15.7-0.001-28.436-12.737-28.436-28.437s12.737-28.436 28.436-28.436h85.604l265.96-354.564c-7.961-10.515-12.885-23.512-12.885-37.693 0-34.657 28.214-62.871 62.907-62.871 34.657 0 62.871 28.214 62.871 62.871 0 11.441-3.332 22.031-8.663 31.288l61.722 51.615c12.034 10.070 13.663 27.991 3.592 40.063-10.072 12.034-28.067 13.627-40.063 3.555zM640.834 318.774l-116.707 152.845c-2.259 2.999-5.628 4.961-9.404 5.48-3.703 0.408-7.479-0.518-10.515-2.814l-152.771-116.744c-6.257-4.776-7.479-13.7-2.666-19.92l116.707-152.808c2.259-3 5.628-4.962 9.404-5.48 0.592-0.074 1.259-0.111 1.851-0.111 3.11 0 6.146 1 8.663 2.925l152.771 116.707c6.258 4.776 7.48 13.7 2.667 19.92z" horiz-adv-x="683" />
<glyph unicode="&#x37;" d="M604.12 2.856c0-4.942-1.218-9.502-3.176-13.673-4.912-12.038-16.596-20.543-30.397-20.543h-459.454c-18.151 0-32.868 14.7-32.868 32.868v312.926c0 18.151 14.717 32.868 32.868 32.868h43.14c18.152 0 32.868-14.717 32.868-32.868 0-18.15-14.716-32.869-32.868-32.869h-10.27v-247.188h394.423v144.472c0 18.153 14.701 32.869 32.867 32.869 18.168 0 32.867-14.717 32.867-32.869v-175.993zM604.442 344.909c0-12.374-4.559-23.238-12.552-29.434l-127.428-100.451c-4.014-2.745-8.572-4.815-12.551-4.815-4.527 0-9.086 2.070-12.583 4.815-7.962 6.131-12.519 17.061-12.519 29.387v55.433c-142.452-15.231-160.668-140.382-160.957-141.536-4.799-15.76-32.868-17.815-37.507 5.039 0.609 190.712 152.627 229.503 198.463 236.837v45.178c0 12.31 4.558 23.238 12.519 29.355 7.575 6.194 17.076 6.194 25.133 0l127.428-100.452c7.994-5.473 12.553-17.125 12.553-29.355z" horiz-adv-x="683" />
<glyph unicode="&#x38;" d="M594.944 98.584h-507.221c-6.697 0-12.126-5.397-12.126-12.094v-106.366c0-6.697 5.429-12.125 12.126-12.125h507.221c6.697 0 12.125 5.428 12.125 12.125v106.366c0 6.697-5.428 12.094-12.125 12.094zM341.349-7.911c-22.755 0-41.188 18.465-41.188 41.22 0 22.723 18.432 41.188 41.188 41.188 22.723 0 41.155-18.465 41.155-41.188 0-22.755-18.432-41.22-41.155-41.22zM594.944 289.293h-507.221c-6.697 0-12.126-5.429-12.126-12.125v-106.35c0-6.697 5.429-12.125 12.126-12.125h507.221c6.697 0 12.125 5.428 12.125 12.125v106.35c0 6.697-5.428 12.125-12.125 12.125zM341.349 182.78c-22.755 0-41.188 18.465-41.188 41.22 0 22.723 18.432 41.188 41.188 41.188 22.723 0 41.155-18.464 41.155-41.188 0-22.755-18.432-41.22-41.155-41.22zM594.944 480h-507.221c-6.697 0-12.126-5.428-12.126-12.125v-106.35c0-6.697 5.429-12.125 12.126-12.125h507.221c6.697 0 12.125 5.428 12.125 12.125v106.35c0 6.697-5.428 12.125-12.125 12.125zM341.349 373.504c-22.755 0-41.188 18.465-41.188 41.203 0 22.723 18.432 41.188 41.188 41.188 22.723 0 41.155-18.465 41.155-41.188 0-22.739-18.432-41.203-41.155-41.203z" horiz-adv-x="683" />
<glyph unicode="&#x39;" d="M667.083 321.096h-651.499c-8.604 0-15.584-6.958-15.584-15.584v-163.026c0-8.666 6.979-15.583 15.584-15.583h651.499c8.625 0 15.584 6.917 15.584 15.583v163.026c0 8.625-6.958 15.584-15.584 15.584zM341.344 171.072c-29.229 0-52.898 23.709-52.898 52.918s23.668 52.897 52.898 52.897c29.231 0 52.898-23.688 52.898-52.897s-23.668-52.918-52.898-52.918z" horiz-adv-x="683" />
<glyph unicode="&#x3a;" d="M379.528 192.437c38.351 0 69.383 31.047 69.383 69.382 0 38.305-31.031 69.335-69.383 69.335-38.272 0-69.366-31.031-69.366-69.335 0-38.336 31.094-69.382 69.366-69.382zM376.4 480.336c-120.559 0-218.673-98.114-218.673-218.673 0-8.947 0.72-17.752 1.768-26.417 10.683 2.972 21.678 4.583 32.298 4.583 5.208 0 10.542-0.47 15.828-1.142-1.017 7.586-2.315 15.109-2.315 22.976 0 94.329 76.733 171.094 171.094 171.094 94.345 0 171.11-76.765 171.11-171.094 0-94.376-76.764-171.141-171.11-171.141-17.611 0-34.285 3.442-50.254 8.446 0.094-1.095 0.391-2.127 0.391-3.191v-46.859c16.048-3.754 32.658-5.943 49.863-5.943 120.559 0 218.658 98.099 218.658 218.689 0 120.559-98.099 218.673-218.658 218.673zM294.865 85.767v15.64c-0.25 3.628-2.815 9.041-9.103 9.041h-21.162v21.303c0 70.853-55.713 76.358-72.808 76.358-0.031 0-0.063 0-0.094 0s-0.078 0-0.078 0c-17.095 0-72.776-5.505-72.776-76.358v-21.303h-21.443c-6.225 0-8.822-5.412-9.040-9.228v-5.444h-0.188v-116.742h0.188v-1.69c0.219-3.598 2.816-9.009 9.040-9.009h188.362c6.288 0 8.853 5.412 9.103 9.197v18.394c0 0-0.031 0-0.031 0.062v89.623c-0 0.062 0.031 0.125 0.031 0.156zM216.817 3.935c0.5-1.252 0.313-2.628-0.422-3.691-0.751-1.125-1.987-1.752-3.316-1.752h-42.935c-1.329 0-2.565 0.626-3.3 1.752-0.751 1.063-0.939 2.44-0.47 3.691l11.184 29.654c-7.132 4.692-11.434 12.512-11.434 21.209 0 14.045 11.434 25.526 25.511 25.526 14.030 0 25.463-11.481 25.463-25.526 0-8.696-4.302-16.517-11.496-21.209l11.215-29.654zM221.338 110.448h-59.263v21.365c0 15.328 5.161 33.565 29.624 33.627 24.509-0.063 29.639-18.3 29.639-33.627v-21.365z" horiz-adv-x="683" />
<glyph unicode="&#x3b;" d="M556.021 209.827c0.188 0.945 0.504 1.889 0.504 2.771v32.429c-0.441 7.556-5.856 18.796-18.891 18.796h-44.456c0 0.032 0 0.095 0 0.127v57.522c0 147.409-115.863 158.87-151.377 158.87-35.452 0-151.315-11.461-151.315-158.871v-57.522c0-0.031 0.063-0.094 0.063-0.126h-44.519c-12.971 0-18.387-11.239-18.828-19.174v-14.42h-0.378v-242.683h0.378v-0.377c0.441-7.557 5.856-18.828 18.828-18.828h391.604c13.034 0 18.449 11.272 18.891 19.206v38.19c0 1.039-0.378 1.732-0.504 2.676v181.414zM388.304 59.678c0.85-2.298 0.534-4.817-0.851-6.832-1.385-2.014-3.652-3.212-6.108-3.212h-79.026c-2.424 0-4.723 1.197-6.108 3.212-1.385 1.984-1.7 4.534-0.818 6.8l20.591 54.563c-12.971 8.627-21.063 23.267-21.063 38.946 0 25.943 21.063 47.007 47.007 47.007 25.817 0 46.849-21.063 46.849-47.007 0-15.994-7.934-30.382-21.126-38.978l20.652-54.5zM280.029 263.822c0 0.031 0 0.095 0 0.126v57.712c0 31.926 10.736 69.927 61.772 69.927 51.13 0 61.898-38.002 61.898-69.927v-57.712c0-0.031 0-0.094 0-0.126h-123.671z" horiz-adv-x="683" />
<glyph unicode="&#x3c;" d="M482.101 139.101c-17.803 0-32.3-14.497-32.3-32.331v-73.363h-218.138l-0.187 119.195 23.757-21.357c12.939-11.255 34.296-9.76 45.458 3.024 5.675 6.485 8.512 14.748 7.951 23.322-0.593 8.605-4.49 16.493-10.944 22.137l-77.508 68.716-2.93 2.12c-1.123 0.748-2.214 1.403-5.581 3.055-1.247 0.53-2.494 0.905-6.142 1.902-4.24 0.873-6.734 1.31-14.28-0.438-1.465-0.374-2.806-0.811-5.207-1.714l-3.616-1.934c-1.341-0.841-2.589-1.746-4.272-3.117l-79.474-69.185c-13.438-11.599-14.966-31.957-3.398-45.458 11.131-12.97 32.457-14.623 45.489-3.336l26.221 23.040v-152.305c0-17.834 14.498-32.3 32.3-32.3h282.802c17.803 0 32.3 14.466 32.3 32.3v105.695c0 17.834-14.498 32.332-32.3 32.332zM587.36 314.323c-11.1 12.939-32.331 14.685-45.489 3.368l-26.221-23.072v152.304c0 17.834-14.497 32.301-32.3 32.301h-285.546c-17.803 0-32.301-14.466-32.301-32.301v-103.885c0-17.803 14.498-32.299 32.301-32.299 17.834 0 32.331 14.497 32.331 32.299v71.553h220.913l0.125-119.163-23.727 21.326c-12.877 11.286-34.264 9.76-45.426-3.024-5.675-6.454-8.512-14.716-7.95-23.29 0.56-8.636 4.426-16.493 10.881-22.137l76.916-68.156 3.367-2.526c1.154-0.873 2.401-1.59 5.738-3.212 1.091-0.467 2.213-0.841 6.204-1.933 2.058-0.406 4.147-0.656 6.298-0.656 2.089 0 4.147 0.25 8.106 1.154 1.372 0.375 2.837 0.811 5.019 1.684l3.834 2.027c1.216 0.811 2.433 1.652 4.053 2.993l79.567 69.216c13.374 11.599 14.87 31.99 3.303 45.428z" horiz-adv-x="683" />
<glyph unicode="&#x3d;" d="M584.375 44.401l-153.815 151.892c18.125 28.516 28.625 62.266 28.625 98.47 0 102.298-83.689 185.237-186.909 185.237-103.251 0-186.94-82.938-186.94-185.237 0-102.314 83.689-185.268 186.94-185.268 33.813 0 65.501 8.969 92.876 24.533l155.096-153.19c17.47-17.281 45.97-17.094 63.688 0.438 17.687 17.563 17.875 45.813 0.438 63.125zM151.057 294.763c0 66.329 54.251 120.111 121.22 120.111 66.938 0 121.189-53.782 121.189-120.111 0-66.345-54.251-120.111-121.189-120.111-66.969 0-121.221 53.766-121.221 120.111z" horiz-adv-x="683" />
<glyph unicode="&#x3e;" d="M590.3 406.748l-16.625 16.625-49.595 49.937c-3.843 3.844-11.219 6.719-16.656 7.031-10.875-4.469-18.875-14.406-19.844-26.563v-104.625c0-1.281 0-2.563-0.312-3.531-1.594-16.969-16.313-30.406-33.594-30.406h-203.531c-16.625 0-30.063 11.844-33.281 27.219-0.313 2.219-0.625 4.469-0.625 6.719v105.907c-2.875 13.75-13.75 24-28.156 25.281h-68.5c-18.531 0-33.906-15.375-33.906-33.906v-444.188c0-18.531 15.375-33.906 33.906-33.906h444.188c18.532 0 33.906 15.375 33.906 33.906v387.219c0 5.438-3.188 13.438-7.375 17.281zM485.675 61.779h-288c-9.906 0-18.25 8.969-18.25 19.844 0 11.188 8.344 20.156 18.25 20.156h288c9.906 0 18.25-8.969 18.25-20.156 0-10.875-8.344-19.844-18.25-19.844zM485.675 157.779h-288c-9.906 0-18.25 8.969-18.25 19.844 0 11.188 8.344 20.156 18.25 20.156h288c9.906 0 18.25-8.969 18.25-20.156 0-10.875-8.344-19.844-18.25-19.844zM420.644 376.248c0-4.344-2.938-7.906-6.531-7.906h-47.75c-3.562 0-6.5 3.563-6.5 7.906v96.156c0 4.375 2.938 7.938 6.5 7.938h47.75c3.594 0 6.531-3.563 6.531-7.938v-96.156z" horiz-adv-x="683" />
<glyph unicode="&#x3f;" d="M487.837 480.341h-293.704c-60.281 0-109.141-48.875-109.141-109.172v-293.641c0-60.281 48.859-109.187 109.141-109.187h293.703c60.281 0 109.156 48.906 109.156 109.187v293.641c0 60.297-48.874 109.172-109.155 109.172zM221.399 60.123c-25.234 0-45.703 20.469-45.703 45.719s20.469 45.719 45.703 45.719c25.25 0 45.719-20.469 45.719-45.719s-20.469-45.719-45.719-45.719zM336.101 64.598c0 31.402-13.935 81.309-44.247 111.747-30.265 30.391-79.204 44.748-110.606 44.748v66c127.659 0 220.838-94.835 220.838-222.494h-65.985zM452.679 64.598c0 159.744-111.687 273.494-271.431 273.494v66c191.829 0 337.431-147.665 337.431-339.494h-66z" horiz-adv-x="683" />
<glyph unicode="&#x40;" d="M98.93 174.8c15.108-22.128 41.31-23.946 69.142-23.946l19.714 0.125c2.131 0 4.106 1.065 5.172 2.884l32.628 55.414 24.886-12.474c2.382-1.192 5.234-0.69 7.052 1.222s2.194 4.795 0.909 7.084l-52.342 94.217c-1.034 1.912-3.072 3.087-5.234 3.087h-108.666c-2.602 0-4.89-1.678-5.704-4.137-0.815-2.461 0.031-5.188 2.132-6.723l26.391-19.48-20.436-44.711c-0.564-1.066-13.383-26.486 4.357-52.562zM171.645 364.517l95.626-58.564c0.971-0.596 2.068-0.893 3.134-0.893 2.037 0 3.981 1.018 5.109 2.837 0.69 1.065 66.102 106.001 80.3 129.132 16.392 26.783 29.337 31.139 29.337 31.139 2.945 0.799 4.827 3.62 4.388 6.613-0.376 2.978-2.945 5.219-5.955 5.219h-105.876c-37.173 0-60.617-30.183-61.934-31.97l-46.106-75.238c-0.846-1.348-1.097-2.993-0.721-4.545 0.377-1.551 1.349-2.883 2.696-3.73zM361.426 387.586l-5.234-8.635c-1.097-1.802-1.192-4.059-0.188-5.94l27.331-55.194-23.632-14.716c-2.257-1.394-3.322-4.090-2.664-6.629 0.658-2.554 2.916-4.372 5.548-4.481l107.694-4.607c0.063 0 0.156 0 0.251 0 2.068 0 4.012 1.097 5.14 2.883l56.731 92.633c1.379 2.21 1.128 5.047-0.533 7.037-1.662 1.975-4.419 2.664-6.864 1.676l-30.371-12.317-24.572 39.257c-0.596 0.987-15.264 25.387-47.046 23.695-29.526-1.442-45.103-27.3-61.589-54.662zM468.587 131.171c-1.097 1.818-2.978 2.632-5.204 2.884l-65.255-0.752-2.382 27.769c-0.188 2.571-2.132 4.764-4.702 5.329-2.633 0.627-5.204-0.627-6.519-2.884l-53.033-93.841c-1.097-1.88-1.065-4.2 0.094-6.080l56.699-92.712c1.097-1.817 3.072-2.884 5.14-2.884 0.439 0 0.877 0.063 1.379 0.188 2.507 0.564 4.388 2.758 4.576 5.329l2.885 32.659 49.772 5.642c1.192 0.063 29.588 2.382 42.501 31.092 12.161 26.954-3.761 52.594-20.623 79.673l-5.328 8.588zM588.38 221.501l-46.324 75.065c-0.814 1.349-2.194 2.319-3.73 2.696-1.567 0.345-3.197 0.094-4.544-0.736l-95.408-58.909c-2.821-1.724-3.699-5.406-2.005-8.243 0.658-1.065 64.754-106.848 78.984-129.916 16.298-26.39 14.606-39.93 14.543-40.37-0.564-2.945 1.129-5.829 3.949-6.77 0.626-0.25 1.317-0.376 1.943-0.376 2.257 0 4.326 1.253 5.391 3.322l47.327 93.59c17.52 33.474 0.877 68.61-0.125 70.647zM290.623 123.022c-1.223 0.063-124.87 1.755-152.012 1.943-31.406 0.188-41.843 9.027-41.843 9.027-2.194 2.132-5.61 2.257-7.93 0.376-2.35-1.88-2.947-5.202-1.379-7.836l54.223-89.766c19.056-32.596 57.671-37.11 59.927-37.361l88.199-0.501c0.031 0 0.063 0 0.063 0 1.567 0 3.103 0.627 4.231 1.692 1.128 1.128 1.786 2.695 1.786 4.262l0.69 112.144c0 3.26-2.633 6.019-5.955 6.019z" horiz-adv-x="683" />
<glyph unicode="&#x41;" d="M564.044 447.472c-144.216 43.902-301.983 43.87-446.105 0-5.106-1.544-8.572-6.271-8.572-11.598l0.221-175.48c0.157-88.228 31.926-161.471 94.453-217.695 50.488-45.193 106.334-65.553 127.764-72.108l5.736-1.765c1.039-0.252 2.111-0.441 3.183-0.441 1.197 0 2.395 0.189 3.561 0.567l5.673 1.954c6.303 2.205 15.411 5.673 26.347 10.589 19.76 8.762 49.701 24.204 80.144 47.652 76.898 59.753 115.978 137.597 116.104 231.278l0.063 175.479c0 5.294-3.466 10.021-8.572 11.565zM439.18 51.462c-0.567-0.378-1.071-0.693-1.639-1.134l-299.81 299.824-0.126 73.683c36.148 10.368 73.179 17.618 110.557 22.281l279.26-279.245c-16.892-44.058-46.202-82.697-88.243-115.411z" horiz-adv-x="683" />
<glyph unicode="&#x42;" d="M666.556 406.688h-650.569c-8.801 0-15.986-7.166-15.986-16.029v-278.94c0-8.78 7.186-16.029 15.986-16.029h21.35v-38.352c0-8.863 7.166-16.029 16.007-16.029h26.672c8.76 0 15.986 7.166 15.986 16.029v38.352h490.619v-38.352c0-8.863 7.124-16.029 15.945-16.029h26.713c8.822 0 15.945 7.166 15.945 16.029v38.352h21.331c8.904 0 16.111 7.248 16.111 16.029v278.94c0 8.863-7.207 16.029-16.111 16.029zM109.733 154.255c0-8.822-7.144-16.029-15.986-16.029-8.801 0-15.987 7.207-15.987 16.029v193.953c0 8.739 7.186 15.945 15.987 15.945 8.843 0 15.987-7.206 15.987-15.945v-193.953zM237.731 154.255c0-8.822-7.144-16.029-15.987-16.029s-15.987 7.207-15.987 16.029v193.953c0 8.739 7.144 15.945 15.987 15.945s15.987-7.206 15.987-15.945v-193.953zM483.992 151.024c-55.332 0-100.352 45.144-100.352 100.394 0 55.374 45.020 100.394 100.352 100.394 55.374 0 100.394-45.020 100.394-100.394-0-55.25-45.020-100.394-100.394-100.394zM482.005 204.824c-27.252 0-49.409 22.24-49.409 49.41 0 27.294 22.158 49.41 49.409 49.41 27.211 0 49.369-22.116 49.369-49.41 0-27.169-22.158-49.41-49.368-49.41z" horiz-adv-x="683" />
<glyph unicode="&#x43;" d="M273.966 474.824c-2.625 2.61-6.159 4.048-9.815 4.048h-163.799c-7.721 0-13.942-6.236-13.942-13.942v-482.647c0-7.69 6.221-13.942 13.942-13.942h482.648c7.721 0 13.942 6.252 13.942 13.942v164.925c0 3.688-1.469 7.252-4.096 9.941l-318.879 317.674zM582.998 480.341h-176.648c-5.659 0-10.753-3.376-12.911-8.627-2.156-5.19-0.938-11.238 3.063-15.224l176.617-176.163c2.688-2.625 6.252-4.064 9.878-4.064 1.782 0 3.626 0.344 5.346 1.063 5.221 2.189 8.597 7.252 8.597 12.942v176.1c0 7.753-6.221 13.973-13.942 13.973z" horiz-adv-x="683" />
<glyph unicode="&#x44;" d="M633.641 414.346h-111.673v52.394c0 7.691-6.25 13.94-13.923 13.94h-334.74c-7.672 0-13.923-6.25-13.923-13.94v-52.394h-110.999c-7.672 0-13.94-6.231-13.94-13.903v-250.63c0-7.709 6.268-13.996 13.94-13.996h111.337v-153.14c0-7.709 6.269-13.997 13.94-13.997h334.721c7.672 0 13.922 6.288 13.922 13.997v153.139h111.337c7.672 0 13.922 6.288 13.922 13.996v250.63c0 7.673-6.249 13.903-13.921 13.903zM106.671 241.334c-20.546 2.919-34.748 21.351-31.699 41.315 2.994 19.928 22.081 33.813 42.608 30.838 20.546-2.9 34.618-21.369 31.716-41.372-3.050-19.854-22.061-33.757-42.626-30.782zM187.246 452.818h306.879v-95.899h-306.878v95.899zM494.461-3.401h-306.878v201.117h306.878v-201.117zM234.083 107h202.858c10.778 0 19.535 8.757 19.535 19.611 0 10.704-8.757 19.535-19.535 19.535h-202.858c-10.797 0-19.535-8.832-19.535-19.535-0-10.853 8.738-19.611 19.535-19.611zM234.083 28.334h202.858c10.778 0 19.535 8.757 19.535 19.535 0 10.853-8.757 19.536-19.535 19.536h-202.858c-10.797 0-19.535-8.683-19.535-19.536-0-10.778 8.738-19.535 19.535-19.535z" horiz-adv-x="683" />
<glyph unicode="&#x45;" d="M466.666 364.164h-39.154v92.061c0 13.327-10.839 24.103-24.12 24.103-13.313 0-24.088-10.775-24.088-24.103v-92.061h-75.428v92.061c0 13.327-10.775 24.103-24.072 24.103s-24.072-10.775-24.072-24.103v-92.061h-39.185c-14.738 0-23.368-12.154-24.072-24.275v-24.386c0-11.402 6.719-20.235 16.79-23.117 6.249-57.322 18.857-102.725 37.478-134.926 0 0 24.072-52.937 70.744-52.937v-112.108c0-13.281 10.775-24.088 24.088-24.088 13.327 0 24.103 10.806 24.103 24.088v112.108c38.966 0 70.948 53.125 70.948 53.125 18.262 32.702 30.729 79.375 37.087 138.795 10.901 3.101 16.853 13.218 17.009 23.007v21.394c-0.69 11.324-9.397 23.321-24.057 23.321z" horiz-adv-x="683" />
<glyph unicode="&#x46;" d="M657.8 386.384c13.958 0 25.208-11.271 25.208-25.208v-272.917c0-13.958-11.25-25.291-25.208-25.291h-632.125c-14 0-25.333 11.334-25.333 25.291v272.917c0 13.938 11.334 25.208 25.333 25.208h632.125zM344.759 171.384c0-11.75 8.084-26.5 17.916-32.875l9.375-6c9.833-6.292 27.5-11.542 39.292-11.542h138.208c11.792 0 29.458 5.25 39.333 11.542l9.333 6c9.875 6.375 17.918 21.125 17.918 32.875v0.917c0 11.75-9.584 21.334-21.333 21.334h-228.708c-11.75 0-21.334-9.584-21.334-21.334v-0.917zM117.007 153.967c0 13.875-11.146 24.916-24.916 24.916-13.751 0-24.896-11.041-24.896-24.916 0-13.75 11.146-24.916 24.896-24.916 13.771 0 24.916 11.166 24.916 24.916zM170.008 150.634c0-11.834 9.563-21.334 21.333-21.334h38.75c11.813 0 21.334 9.5 21.334 21.334v7.209c0 11.75-9.52 21.334-21.334 21.334h-38.75c-11.77 0-21.334-9.584-21.334-21.334v-7.209zM251.425 302.197c0 14.5-11.667 26.312-26.187 26.312h-131.897c-14.437 0-26.146-11.812-26.146-26.312v-40c0-14.355 11.709-26.126 26.146-26.126h131.896c14.521 0 26.187 11.771 26.187 26.126v40zM593.091 256.988c12.791 0 23.042 11.334 23.042 25.209 0 14-10.251 25.333-23.042 25.333h-225.208c-12.791 0-23.083-11.333-23.083-25.333 0-13.875 10.291-25.209 23.083-25.209h225.208z" horiz-adv-x="683" />
<glyph unicode="&#x47;" d="M585.419 480.341h-487.5c-6.626 0-12-5.375-12-12v-488c0-6.625 5.376-12 12-12h487.5c6.625 0 12 5.375 12 12v488c0 6.625-5.375 12-12 12zM461.669 219.342l-170.25-98.313c-0.875-0.5-1.875-0.781-2.875-0.781s-2 0.281-2.875 0.781c-1.781 1.032-2.906 2.938-2.906 5v196.625c0 2.063 1.125 3.969 2.906 5 1.75 1 4 1 5.75 0l170.25-98.313c1.781-1.031 2.907-2.938 2.907-5-0-2.063-1.125-3.969-2.908-5z" horiz-adv-x="683" />
<glyph unicode="&#x48;" d="M666.759 366.975h-61.333v61.333c0 8.833-7.167 16-16 16h-170.667c-8.833 0-16-7.166-16-16v-61.334h-386.644c-8.833 0-16-7.166-16-16v-330.687c0-8.833 7.167-16 16-16h650.646c8.833 0 16 7.166 16 16v330.688c-0 8.833-7.168 16-16.001 16zM498.092 66.12c-64.416 0-116.834 52.416-116.834 116.834 0 64.438 52.416 116.854 116.834 116.854s116.833-52.416 116.833-116.854c0-64.416-52.417-116.834-116.834-116.834zM542.176 189.183c-20.917 0-37.834 16.958-37.834 37.875 0 10.042 4.083 19.084 10.417 25.875-5.166 1.208-10.417 2.041-16 2.041-38.25 0-69.334-31.041-69.334-69.334 0-38.271 31.083-69.354 69.334-69.354 38.333 0 69.333 31.083 69.333 69.354 0 4.5-0.5 8.875-1.333 13.125-6.667-5.75-15.083-9.582-24.583-9.582z" horiz-adv-x="683" />
<glyph unicode="&#x49;" d="M591.601 62.091l-99.321 99.414c-7.541 7.541-19.87 7.573-27.412 0.063l-40.085-40.086c0 0-29.070-30.135-122.587 63.398-93.485 93.501-63.351 122.493-63.351 122.493l-0.016 0.016 40.037 40.037c7.51 7.51 7.495 19.87-0.062 27.459l-99.321 99.446c-7.542 7.541-19.886 7.557-27.443 0.047l-40.602-40.618 0.016-0.031c-67.231-68.295 3.677-205.135 119.035-320.541 115.374-115.405 252.245-186.281 320.525-119.16l0.063-0.063 40.616 40.618c7.51 7.51 7.479 19.902-0.093 27.507z" horiz-adv-x="683" />
<glyph unicode="&#x4a;" d="M341.334 480c-141.434 0-255.993-114.621-255.993-255.992 0-141.387 114.559-256.008 255.993-256.008 141.37 0 255.992 114.622 255.992 256.008 0 141.37-114.621 255.992-255.992 255.992zM317.303 409.471c0 13.25 10.75 23.999 23.999 23.999 13.25 0 23.999-10.75 23.999-23.999v-38.623c0-13.25-10.75-23.999-23.999-23.999-13.25 0-23.999 10.749-23.999 23.999v38.623zM178.963 193.134h-38.624c-13.25 0-23.999 10.75-23.999 23.999 0 13.249 10.75 23.999 23.999 23.999h38.624c13.25 0 23.999-10.75 23.999-23.999 0-13.25-10.75-23.999-23.999-23.999zM468.080 305.802l-70.654-72.342c5.438-16.577 2.594-35.452-9.406-49.842-18.499-22.187-51.467-25.062-73.591-6.563-22.156 18.5-25.093 51.421-6.593 73.607 13.89 16.608 35.906 22.405 55.388 16.453l70.483 72.216c9.313 9.485 24.468 9.656 33.968 0.406 9.468-9.265 9.656-24.452 0.406-33.936zM542.296 193.134h-38.624c-13.249 0-23.998 10.75-23.998 23.999 0 13.249 10.75 23.999 23.998 23.999h38.624c13.249 0 23.999-10.75 23.999-23.999 0-13.25-10.75-23.999-23.999-23.999z" horiz-adv-x="683" />
<glyph unicode="&#x4b;" d="M481.824 261.198l96.448 63.651-230.564 153.178c-3.807 2.631-8.943 2.631-12.813 0l-90.026-59.329 236.955-157.5zM349.932 169.416l90.261 60.644-236.876 157.563-90.387-60.707zM347.708 118.796c-0.157-0.125-0.376-0.063-0.564-0.125-1.676-1.065-3.57-1.629-5.56-1.754-0.062 0-0.14-0.063-0.25-0.063v0c-0.031 0-0.031 0-0.031 0-0.094 0-0.188 0.063-0.282 0.063-1.926 0.125-3.822 0.69-5.498 1.692-0.188 0.125-0.439 0.063-0.627 0.188l-249.547 168.464v-142.778c0-3.759 1.864-7.33 4.996-9.397l244.551-165.079c0.188-0.125 0.376-0.063 0.548-0.25 0.172-0.063 0.266-0.25 0.454-0.439 1.676-0.877 3.571-1.315 5.373-1.315 1.88 0 3.743 0.438 5.435 1.315 0.22 0.188 0.313 0.376 0.501 0.439 0.156 0.188 0.376 0.125 0.501 0.25l244.534 165.079c3.196 2.067 5.075 5.639 5.075 9.397v142.84l-249.609-168.526z" horiz-adv-x="683" />
<glyph unicode="&#x4c;" d="M483.563 298.145c-40.933 0-74.228-33.212-74.228-74.145s33.295-74.144 74.228-74.144c40.851 0 74.062 33.211 74.062 74.144s-33.211 74.145-74.062 74.145zM483.563 423.105c-37.197 0-71.738-10.878-101.544-28.729v43.259c0 11.624-9.465 21.007-21.007 21.007h-339.964c-11.665 0-21.048-9.382-21.048-21.007v-427.185c0-11.707 9.383-21.091 21.048-21.091h339.963c11.541 0 21.007 9.382 21.007 21.091v43.258c29.808-17.935 64.347-28.812 101.544-28.812 109.765 0 199.105 89.34 199.105 199.105s-89.339 199.105-199.104 199.105zM319.206 200.254h-176.479l60.155-60.196c9.341-9.3 9.341-24.494 0-33.793-4.69-4.649-10.752-6.974-16.896-6.974-6.102 0-12.206 2.325-16.939 6.974l-100.922 100.964c-2.2 2.241-3.943 4.899-5.19 7.805-2.407 5.895-2.407 12.454 0 18.266 1.246 2.989 2.989 5.563 5.19 7.805l102.416 102.376c9.382 9.382 24.494 9.382 33.793 0 9.382-9.299 9.382-24.411 0-33.793l-61.608-61.608h176.479c13.243 0 23.913-10.71 23.913-23.912 0-13.204-10.669-23.914-23.913-23.914zM483.563 60.515c-38.609 0-73.564 14.031-101.544 36.45v254.070c27.981 22.418 62.935 36.451 101.544 36.451 90.087 0 163.401-73.315 163.401-163.485 0-90.17-73.314-163.485-163.401-163.485z" horiz-adv-x="683" />
<glyph unicode="&#x4d;" d="M340.654 164.019h-108.118l-32.974 35.007c-2.502 2.659-6.006 4.192-9.666 4.192h-88.066c-7.32 0-13.265-5.944-13.265-13.296v-38.166c-0.031-0.344-0.125-0.656-0.125-1.033v-169.092c0-7.351 5.944-13.296 13.296-13.296h238.919c7.351 0 13.296 5.944 13.296 13.296v169.092c-0 7.321-5.945 13.296-13.296 13.296zM373.877 480.335c-121.821 0-220.899-99.109-220.899-220.898 0-2.753 0.313-5.444 0.407-8.166h36.509c4.098 0 8.134-0.439 12.107-1.251-0.188 3.191-0.97 6.195-0.97 9.416 0 95.292 77.553 172.845 172.845 172.845 95.293 0 172.846-77.553 172.846-172.845 0-85.689-62.82-156.484-144.722-170.031v-48.897c108.526 13.891 192.775 106.649 192.775 218.929 0 121.79-99.078 220.899-220.899 220.899zM447.115 259.593c0 38.699-31.348 70.046-70.046 70.046s-70.077-31.346-70.077-70.046c0-38.729 31.378-70.108 70.077-70.108s70.046 31.378 70.046 70.108z" horiz-adv-x="683" />
<glyph unicode="&#x4e;" d="M582.933 122.841h-181.624c-8.125 0-14.75-6.625-14.75-14.75v-125c0-8.125 6.625-14.75 14.75-14.75h181.625c8.125 0 14.75 6.625 14.75 14.75v125c0 8.125-6.625 14.75-14.75 14.75zM282.043 122.841h-181.625c-8.125 0-14.749-6.625-14.749-14.75v-125c0-8.125 6.626-14.75 14.749-14.75h181.625c8.125 0 14.75 6.625 14.75 14.75v125c0 8.125-6.625 14.75-14.75 14.75zM254.542 325.826h174.266c8.125 0 14.75 6.609 14.75 14.765v124.985c0 8.156-6.625 14.765-14.75 14.765h-174.266c-8.125 0-14.75-6.61-14.75-14.765v-124.985c-0-8.156 6.625-14.765 14.75-14.765zM481.058 214.483v-59.266h29.5v74.031c0 8.172-6.625 14.781-14.75 14.781h-139.376v59.25h-29.515v-59.25h-139.375c-8.156 0-14.75-6.609-14.75-14.781v-74.032h29.5v59.265z" horiz-adv-x="683" />
<glyph unicode="&#x4f;" d="M549.726 477.317c-4.204 3.043-9.694 3.827-14.527 2.102l-237.918-81.731c-6.494-2.228-10.855-8.314-10.855-15.185v-263.738c-17.038 13.774-39.344 22.401-64.005 22.401-52.992 0-96.133-38.749-96.133-86.376 0-47.69 43.14-86.47 96.133-86.47s96.133 38.78 96.133 86.47v231.799l205.789 71.536v-157.596c-17.036 13.774-39.312 22.401-63.974 22.401-53.024 0-96.165-38.749-96.165-86.407 0-47.69 43.141-86.469 96.164-86.469 52.992 0 96.101 38.779 96.101 86.469v327.712c0 5.176-2.51 10.072-6.745 13.084z" horiz-adv-x="683" />
<glyph unicode="&#x50;" d="M384.899 365.458h-12.895c-1.321 20.223-7.171 48.81-27.959 72.901-24.058 27.865-60.791 42.017-109.161 42.017-13.334 0-24.154-10.819-24.154-24.154s10.819-24.154 24.154-24.154c33.525 0 57.868-8.428 72.365-25.002 11.353-13.020 15.19-29.248 16.385-41.608h-13.272c-68.56 0-86.675-56.703-86.675-86.675v-223.733c0-29.971 18.115-86.675 86.675-86.675h74.536c30.002 0 86.675 18.115 86.675 86.675v223.733c0 68.56-56.673 86.675-86.675 86.675zM371.815 211.481c0-13.334-10.819-24.154-24.154-24.154s-24.152 10.819-24.152 24.154v62.050c0 13.334 10.819 24.152 24.152 24.152 13.334 0 24.154-10.819 24.154-24.152v-62.050z" horiz-adv-x="683" />
<glyph unicode="&#x51;" d="M463.031 384.645h-27.937v63.22c0 17.766-14.377 32.143-32.144 32.143s-32.144-14.377-32.144-32.143v-63.219h-151.174c-6.655 0-12.053-5.399-12.053-12.054v-392.546c0-6.654 5.399-12.053 12.053-12.053h243.397c6.654 0 12.054 5.399 12.054 12.053v392.546c0 6.654-5.399 12.054-12.053 12.054zM394.696 286.144h-106.741c-11.707 0-21.204 9.48-21.204 21.204s9.496 21.204 21.204 21.204h106.741c11.74 0 21.219-9.48 21.219-21.204s-9.479-21.204-21.219-21.204zM355.49 22.673h-31.421c-17.186 0-31.139 13.938-31.139 31.139 0 17.169 13.952 31.139 31.139 31.139h31.421c17.186 0 31.139-13.969 31.139-31.139 0-17.202-13.952-31.139-31.139-31.139z" horiz-adv-x="683" />
<glyph unicode="&#x52;" d="M141.674 8.341c-8.85 0-16.001 7.166-16.001 16v104h-39.999v-122.733c0-20.567 16.683-37.267 37.249-37.267h122.751v40h-104zM557.674 128.341v-104c0-8.833-7.167-16-16-16h-104v-40h122.733c20.567 0 37.267 16.7 37.267 37.267v122.733h-40zM125.675 408.941v15.4c0 8.85 7.151 16 16.001 16h104v40h-122.751c-20.567 0-37.249-16.65-37.249-37.217v-122.783h40v88.6zM560.408 480.341h-122.733v-40h103.999c8.833 0 16-7.15 16-16v-104h40v122.784c0 20.567-16.7 37.217-37.267 37.217z" horiz-adv-x="683" />
<glyph unicode="&#x53;" d="M661.096 342.816h-640.166c-11.746 0-21.25-9.504-21.25-21.25v-194.49c0-11.745 9.505-21.25 21.25-21.25h640.167c11.745 0 21.25 9.505 21.25 21.25v194.49c-0 11.746-9.505 21.25-21.25 21.25zM425.723 204.067c0-11.123-9.005-20.13-20.129-20.13h-334.983c-11.123 0-20.13 9.007-20.13 20.13v26.48c0 11.124 9.007 20.13 20.13 20.13h334.983c11.123 0 20.129-9.006 20.129-20.13v-26.48zM627.768 204.067c0-11.746-9.462-21.25-21.25-21.25h-81.058c-11.745 0-21.25 9.505-21.25 21.25v26.48c0 11.746 9.505 21.25 21.25 21.25h81.058c11.788 0 21.25-9.505 21.25-21.25v-26.48z" horiz-adv-x="683" />
<glyph unicode="&#x54;" d="M666.946 341.476h-650.542c-8.868 0-16.063-7.195-16.063-16.063v-202.144c0-8.868 7.196-16.063 16.063-16.063h16.063v46.18c0 17.736 14.39 32.125 32.126 32.125s32.126-14.389 32.126-32.125v-46.18h59.566v46.18c0 17.736 14.39 32.125 32.125 32.125s32.125-14.389 32.125-32.125v-46.18h66.259v47.519c0 17.736 14.39 32.127 32.125 32.127s32.125-14.39 32.125-32.127v-47.519h75.629c-0.125 1.171-0.669 2.175-0.669 3.346 0 19.995 16.188 36.14 36.141 36.14 19.953 0 36.141-16.145 36.141-36.14 0-1.171-0.543-2.175-0.669-3.346h89.015v47.519c0 17.736 14.389 32.127 32.125 32.127s32.126-14.39 32.126-32.127v-47.519h16.063c8.868 0 16.063 7.195 16.063 16.063v202.144c-0 8.868-7.196 16.063-16.063 16.063zM460.807 231.693h-393.538c-17.736 0-32.126 14.411-32.126 32.146s14.39 32.125 32.126 32.125h393.538c17.736 0 32.125-14.39 32.125-32.125s-14.39-32.146-32.125-32.146z" horiz-adv-x="683" />
<glyph unicode="&#x55;" d="M667.422 436.387h-652.157c-8.451 0-15.265-6.877-15.265-15.203l0.185-394.367c0-8.327 6.814-15.204 15.265-15.204h651.971c8.368 0 15.245 6.877 15.245 15.204v394.368c0 8.327-6.876 15.203-15.244 15.203zM639.129 300.969l-276.058-197.929-6.565-3.356c-5.262-2.444-10.253-3.687-15.183-3.687-4.785 0-9.673 1.243-14.851 3.48-0.084 0-6.193 3.107-6.297 3.19l-275.913 189.643c-17.005 11.682-21.293 34.88-9.693 51.906 7.001 10.232 18.475 16.239 30.841 16.239 7.519 0 14.852-2.237 21.085-6.587l254.351-174.898 254.786 182.726c6.38 4.474 13.919 6.918 21.707 6.918 12.014 0 23.405-5.8 30.447-15.493 11.931-16.82 8.077-40.142-8.658-52.154z" horiz-adv-x="683" />
<glyph unicode="&#x56;" d="M341.334 480.327c-102.892 0-186.589-83.697-186.589-186.589 0-75.259 46.044-143.55 115.291-172.263l56.518-143.065c2.38-6.075 8.25-10.083 14.779-10.083s12.399 4.008 14.779 10.083l56.518 143.065c69.231 28.714 115.292 97.005 115.292 172.264 0 102.892-83.697 186.589-186.589 186.589zM341.334 215.38c-43.539 0-78.797 35.257-78.797 78.781 0 43.508 35.257 78.766 78.797 78.766 43.524 0 78.781-35.257 78.781-78.766 0-43.524-35.257-78.781-78.781-78.781z" horiz-adv-x="683" />
<glyph unicode="&#x57;" d="M341.334 480c-97.211 0-176.012-78.801-176.012-175.981 0-67.548 38.509-125.531 94.366-155.068v-62.641h163.353v62.703c55.857 29.539 94.305 87.49 94.305 155.007 0 97.179-78.832 175.98-176.012 175.98zM259.688 40.017v-15.566c0-0.407 0.188-0.719 0.219-1.094v-4.877c0 0 2.313-7.127 8.94-15.942 0.062-0.125 0.125-0.187 0.219-0.313 1.75-2.313 3.813-4.75 6.189-7.188 3.752-3.657 7.783-6.94 12.065-9.94 0.719-0.469 1.344-0.969 2.063-1.407 2.876-1.906 6.033-3.376 9.127-4.97 1.688-0.813 3.126-1.719 4.97-2.438 0.031-0.125 0.094-0.188 0.125-0.313 11.565-5.063 24.318-7.97 37.76-7.97 13.503 0 26.224 2.907 37.853 7.971 0 0.125 0.125 0.187 0.125 0.313 1.656 0.656 2.939 1.5 4.469 2.219 3.345 1.688 6.69 3.251 9.784 5.283 0.563 0.344 1.063 0.75 1.594 1.156 4.5 3.094 8.719 6.564 12.628 10.378 1.688 1.781 3.031 3.438 4.438 5.189 0.656 0.688 1.219 1.469 1.875 2.219 6.408 8.752 8.721 15.754 8.721 15.754v4.877c0 0.375 0.188 0.688 0.188 1.094v15.566h-163.352z" horiz-adv-x="683" />
<glyph unicode="&#x58;" d="M655.904 436.671h-629.803c-14.648 0-26.442-11.793-26.442-26.401v-371.88c0-14.586 11.793-26.38 26.442-26.38h629.803c14.628 0 26.422 11.793 26.422 26.38v371.88c0 14.607-11.793 26.401-26.422 26.401zM491.166 322.172h69.22v-5.751h0.209v-57.386h-0.209v-6.043h-69.221v69.179zM366.539 322.172h69.242v-69.18h-69.242v69.18zM242.662 322.172h69.221v-69.18h-69.221v69.18zM118.806 259.034v63.137h69.242v-69.18h-69.242v6.043zM563.263 132.24h-444.457v57.969h444.457v-57.969z" horiz-adv-x="683" />
<glyph unicode="&#x59;" d="M662.63 458.649h-642.572c-11.312 0-20.058-11.313-20.058-22.5v-29.658c0-11.208 8.745-22.5 20.058-22.5h22.604v-372.182c0-5.635 1.169-11.688 4.8-15.445 3.736-3.632 7.681-7.013 13.337-7.013h265.716c5.531 0 10.645 3.381 14.38 7.013l72.863 72.549c3.631 3.714 8.766 5.76 14.401 5.76h193.688c11.312 0 18.159 10.644 18.159 21.957v287.36h22.625c11.271 0 20.037 11.292 20.037 22.5v29.659c0 11.187-8.766 22.5-20.037 22.5zM184.859 137.79c-46.293 0-83.966 37.652-83.966 83.966 0 26.215 15.361 43.726 28.928 59.088 2.775 3.214 5.636 6.407 8.306 9.705 5.343 6.615 22.186 38.383 32.434 58.878 2.672 5.323 8.099 8.62 14.089 8.745 5.636 0.209 11.5-3.089 14.276-8.411 10.666-19.744 29.888-53.889 35.962-61.133 1.586-2.025 3.298-4.070 5.113-6.073 13.546-16.008 28.907-34.147 28.907-60.8-0-46.315-37.653-83.966-84.050-83.966z" horiz-adv-x="683" />
<glyph unicode="&#x5a;" d="M322.673 5.825v135.859c0 6.57 5.308 11.892 11.877 11.892h100.151c6.538 0 11.892-5.324 11.892-11.892v-161.792c0-6.568 5.324-11.892 11.923-11.892h78.763c6.568 0 11.923 5.324 11.923 11.892v260.231c0 3.939-1.992 7.659-5.23 9.869l-195.975 132.341c-4.048 2.724-9.309 2.724-13.325 0l-195.959-132.341c-3.268-2.21-5.23-5.931-5.23-9.869v-260.23c0-6.569 5.323-11.892 11.892-11.892h165.387c6.568 0 11.908 5.324 11.908 11.892v25.933zM589.519 314.807l-241.519 163.161c-4.048 2.709-9.309 2.709-13.325 0l-109.241-73.782v63.913c0 6.57-5.323 11.892-11.892 11.892h-68.163c-6.569 0-11.892-5.323-11.892-11.892v-126.021l-40.362-27.272c-5.433-3.658-6.88-11.052-3.191-16.484 2.304-3.425 6.055-5.261 9.87-5.261 2.288 0 4.608 0.654 6.647 2.039l228.179 154.086c4 2.724 9.277 2.724 13.308 0l-0.046 0.14 228.337-154.226c5.417-3.673 12.826-2.257 16.531 3.222 3.642 5.433 2.24 12.827-3.239 16.485z" horiz-adv-x="683" />
<glyph unicode="&#x5b;" d="M585.083 480h-487.5c-6.626 0-12-5.375-12-12v-488c0-6.625 5.376-12 12-12h487.5c6.625 0 12 5.375 12 12v488c0 6.625-5.375 12-11.999 12zM335.177 46.781c-18.297 0-33.187 14.875-33.187 33.187 0 18.344 14.891 33.25 33.187 33.25 18.328 0 33.25-14.906 33.25-33.25-0-18.313-14.923-33.187-33.25-33.187zM394.739 233.953c-14.938-13.093-26.75-23.422-26.75-39.218 0 0-0.562-10.171-2.36-23.704-1.797-13.531-16.64-21.75-30.453-21.75s-28.063 6.781-30.453 21.75-2.172 27.313-2.172 27.313c0 35.265 24.906 53.922 42.781 69.656 14.063 12.375 35.75 22.827 32 44-4 22.672-21.672 29.672-38.671 26.672-13.875-2.454-45.984-24.61-45.984-24.61-3.141-1.14-6.265-1.703-9.437-1.703-17 0-30.844 13.844-30.844 30.859 0 8.563 3.578 16.594 10.031 22.563 7.515 7.031 35.469 29.953 79.875 29.953 46.375 0 95.656-29.298 95.656-83.594 0-40.296-23.969-61.311-43.219-78.186z" horiz-adv-x="683" />
<glyph unicode="&#x5c;" d="M527.448 480.334h-372.816c-8.951 0-16.212-7.245-16.212-16.211v-479.578c0-8.95 7.261-16.212 16.212-16.212h372.816c8.982 0 16.212 7.261 16.212 16.212v479.578c0 8.966-7.23 16.211-16.212 16.211zM341.026 114.793c-14.74 0-28.697 2.88-42.123 6.979l-21.813-54.265c8.731-11.423 11.048-27.101 4.632-40.997-9.231-19.935-32.828-28.635-52.794-19.403-19.935 9.231-28.635 32.828-19.403 52.794 6.447 13.988 19.966 22.375 34.393 23.033l25.004 51.856c-43.124 25.098-72.478 71.243-72.478 124.616 0 79.755 64.843 144.629 144.582 144.629 79.771 0 144.645-64.875 144.645-144.629-0-79.739-64.875-144.614-144.645-144.614zM341.026 371.459c-61.933 0-112.161-50.245-112.161-112.208 0-40.558 21.719-75.796 53.984-95.481l11.61 24.003c3.724 6.995 12.361 9.748 19.403 6.072 6.572-3.442 9.358-11.298 6.728-18.12l-9.67-24.065c9.639-2.723 19.591-4.601 30.106-4.601 61.933 0 112.224 50.276 112.224 112.192-0 61.964-50.291 112.208-112.224 112.208zM341.026 216.392c-23.628 0-42.843 19.215-42.843 42.858 0 23.659 19.215 42.874 42.843 42.874 23.659 0 42.874-19.215 42.874-42.874 0-23.643-19.216-42.858-42.874-42.858z" horiz-adv-x="683" />
<glyph unicode="&#x5d;" d="M260.942 466.938c-68.406-22.64-123.938-73.281-153.141-138.406h110.609c8.938 43.156 23.235 88.688 42.531 138.406zM257.849 168.531h166.984c4.406 37.328 4.188 73.969-0.813 112h-165.36c-5.015-38.031-5.234-74.672-0.813-112zM267.411 328.531h147.859c-9.5 42.188-24.312 87.031-44.515 137.031-1.86 4.421-3.625 8.765-5.594 13.234-7.86 0.735-15.782 1.204-23.829 1.204-7.938 0-15.75-0.469-23.5-1.187-3.594-8.094-6.828-15.984-10.094-23.89-18-45.688-31.531-87.25-40.328-126.391zM574.865 328.531c-29.219 65.125-84.719 115.766-153.157 138.406 19.313-49.719 33.625-95.25 42.563-138.406h110.594zM210.364 280.531h-118.562c-4.109-18.204-6.469-37.078-6.469-56.531 0-19.063 2.25-37.594 6.203-55.469h118.141c-4 37.297-3.875 74.109 0.688 112zM397.24 51.563c0.094 0.219 0.156 0.469 0.219 0.719 7.938 23.563 14.281 46.156 19.125 68.25h-150.5c7.25-33.094 17.906-67.375 32.109-104.219 0.281-0.719 0.547-1.407 0.828-2.094 2.219-5.75 4.781-11.719 7.172-17.563 3.859-9.063 7.813-18.188 12.125-27.5 7.594-0.688 15.235-1.157 23.015-1.157 7.969 0 15.813 0.469 23.594 1.187 1.875 4.157 3.546 8.188 5.328 12.281 10.39 24.438 19.452 47.75 26.984 70.094zM107.287 120.531c29.047-65.563 84.766-116.594 153.453-139.375-20.172 49.687-34.891 95.469-43.703 139.375h-109.749zM590.865 280.531h-118.562c4.563-37.891 4.687-74.704 0.688-112h118.157c3.937 17.875 6.187 36.406 6.187 55.469 0 19.453-2.375 38.328-6.469 56.531zM421.928-18.844c68.687 22.781 124.406 73.812 153.469 139.375h-109.75c-8.813-43.906-23.563-89.686-43.719-139.375z" horiz-adv-x="683" />
<glyph unicode="&#x5e;" d="M42.666-24c-23.582 0-42.666 15.916-42.666 35.5v424.958c0 19.625 19.084 35.541 42.666 35.541h597.333c23.583 0 42.668-15.917 42.668-35.541v-424.958c0-19.584-19.084-35.5-42.668-35.5h-597.333zM451.708 21.25c17.875 8.041 26 29.457 17.958 48.041l-51.917 112c3.25-0.209 6.375-0.333 9.418-0.333 46.084 0 125.167 20.291 137 157.188 0 31.208-8.625 57.208-24.292 73.188-12.125 12.313-27.5 18.832-44.459 18.832-29.416 0-70.75-14.291-154.166-117.833-83.834 104.166-125.958 117.833-153.417 117.833-17.375 0-32.916-6.521-45.042-18.854-11.083-11.291-24.291-33.437-24.249-75.647 11.834-134.603 90.874-154.707 136.959-154.707 3.625 0 7.25 0.125 10.916 0.375l-52.209-112.417c-7.708-18.375 0.5-39.792 17.125-47.084 5.875-3.541 11.709-4 16.125-4 14.125 0 27.293 8.459 32.709 20.834l61.668 133.667 62-133.583c5.625-12.5 18.875-20.917 32.958-20.917 4.041 0 10.124 0.416 14.916 3.416zM489.791 356c1.041-3.855 2.001-9.125 2.043-13.875-7.666-88.75-47.625-88.75-64.667-88.75-12.625 0-25.459 2.73-35.709 5.708 57.25 72.375 86.917 91.75 98.334 96.916zM291.208 259.063c-10.209-2.958-23-5.688-35.708-5.688-17.042 0-57 0-64.626 86.375 0 5.875 1.125 12.021 2.291 16.229 11.292-5.228 40.959-24.729 98.043-96.916z" horiz-adv-x="683" />
<glyph unicode="&#x60;" d="M409.214 473.197c-3.776 5.618-10.644 8.053-17.197 6.18-6.461-1.935-10.924-7.803-11.049-14.545-1.592-83.399-47.567-123.288-96.226-165.424-58.117-50.438-118.231-102.563-82.181-227.098 4.931-14.046 12.422-25.033 20.912-33.772l-29.464-31.524c-8.739-9.363-8.24-24.034 1.124-32.773 4.464-4.182 10.143-6.243 15.824-6.243 6.18 0 12.359 2.435 16.948 7.366l35.425 37.892c13.296-4.993 23.628-6.367 24.627-6.492 9.020-1.062 17.76-1.56 26.249-1.56 67.043 0 121.228 32.585 152.595 91.888 52.686 99.442 30.057 247.074-57.587 376.105z" horiz-adv-x="683" />
<glyph unicode="&#x61;" d="M622.9 384.613h-247.139l12.399 34.185 16.447 38.611c0.788 1.934 1.255 4.067 1.255 6.288 0 2.311-0.467 4.425-1.255 6.396-0.788 1.935-2.043 3.673-3.546 5.124-1.399 1.469-3.153 2.706-5.125 3.476-1.935 0.86-4.12 1.308-6.342 1.308h-96.553c-2.257 0-4.372-0.448-6.324-1.308-1.953-0.77-3.709-2.007-5.142-3.476-1.469-1.451-2.67-3.189-3.529-5.124-0.788-1.971-1.29-4.085-1.29-6.397 0-2.221 0.502-4.353 1.29-6.288l16.429-38.611 12.416-34.185h-247.176c-7.722 0-13.957-6.199-13.957-13.957v-388.752c0-7.668 6.235-13.903 13.957-13.903h563.187c7.777 0 14.010 6.235 14.010 13.903v388.752c0 7.758-6.234 13.957-14.010 13.957zM259.93 85.568h-135.86c-16.698 0-30.243 12.613-30.243 28.093 0 15.479 13.545 28.093 30.243 28.093h135.861c16.716 0 30.243-12.613 30.243-28.092 0-15.48-13.527-28.093-30.243-28.093zM259.93 206.253h-135.86c-16.698 0-30.243 12.56-30.243 28.112 0 15.498 13.545 28.039 30.243 28.039h135.861c16.716 0 30.243-12.542 30.243-28.039 0-15.552-13.527-28.111-30.243-28.111zM464.16 298.935c33.791 0 60.952-27.341 60.952-60.988 0-33.719-27.161-61.077-60.952-61.077-33.719 0-61.024 27.358-61.024 61.077 0 33.647 27.305 60.988 61.024 60.988zM581.226 19.563h-239.902v55.327c0 33.647 27.305 61.024 61.060 61.024h117.676c33.755 0 61.167-27.377 61.167-61.024v-55.327z" horiz-adv-x="683" />
<glyph unicode="&#x62;" d="M171.444 54.844c0.125 0.719-0.187 1.5-0.625 2-0.062 0.032-46.437 46.407-46.5 46.407-0.469 0.499-1.187 0.781-1.969 0.656-0.781-0.187-1.312-0.656-1.624-1.312 0-0.031-11.438-58.375-11.438-58.375-0.125-0.719 0.062-1.407 0.594-2.001 0.594-0.561 1.313-0.719 2.031-0.593 0 0 58.031 11.501 58.156 11.531 0.063 0 0 0.031 0.063 0.031 0.624 0.312 1.124 0.905 1.312 1.656zM543.692 425.046l-49.563 49.563c-6.842 6.828-17.531 7.25-23.967 0.813l-44.656-44.531c-1.188-1.218-1.188-3.25 0.095-4.484l69.905-69.906c1.219-1.265 3.187-1.235 4.438 0l44.5 44.547c6.437 6.436 6.062 17.171-0.751 23.998zM226.505 83.031c-1.25-1.219-3.313-1.219-4.5 0.031l-69.874 69.875c-1.25 1.25-1.25 3.219-0.063 4.469l239.657 239.593c1.187 1.234 3.156 1.234 4.438 0l69.937-69.937c1.25-1.187 1.25-3.188-0.094-4.422l-239.5-239.608zM586.787-16.656c0-8.499-6.843-15.344-15.375-15.344h-460.219c-8.438 0-15.313 6.844-15.313 15.344v0c0 8.469 6.875 15.313 15.313 15.313h460.217c8.532-0.002 15.376-6.845 15.376-15.313v0z" horiz-adv-x="683" />
<glyph unicode="&#x63;" d="M577.135 264.67h-21.256c-4.566 0-9.667 3.779-11.053 8.566l-29.16 67.861c-2.173 3.967-1.354 10.203 1.732 13.289l14.36 14.36c3.055 3.023 4.692 7.022 4.692 11.274-0.032 4.188-1.701 8.125-4.66 11.022l-34.545 34.577c-5.921 5.983-16.281 6.046-22.39 0l-15.524-15.62c-3.117-3.055-9.132-4.409-14.045-1.826l-59.139 23.586c-4.345 1.228-8.156 6.236-8.156 10.738v21.791c0 8.691-7.053 15.714-15.713 15.714h-48.967c-8.661 0-15.714-7.022-15.714-15.714v-21.791c0-4.471-3.842-9.636-8.597-11.148l-68.649-29.348c-3.653-2.205-9.951-1.355-13.006 1.637l-15.304 15.399c-5.92 5.858-16.249 5.889-22.295-0.031l-34.577-34.702c-2.992-2.96-4.629-6.897-4.629-11.085 0-4.219 1.637-8.187 4.597-11.116l16.627-16.721c3.244-3.275 4.251-9.51 1.984-13.951l-23.334-58.666c-1.196-4.377-6.109-8.093-10.769-8.093h-23.114c-8.628 0-15.618-7.054-15.618-15.745v-48.968c0-8.723 6.99-15.808 15.618-15.808h23.114c4.66 0 9.7-3.716 11.148-8.534l28.656-67.421c2.267-3.873 1.512-10.014-1.607-13.163l-15.934-15.87c-2.992-2.96-4.629-6.928-4.629-11.085 0-4.219 1.637-8.187 4.629-11.209l34.639-34.577c5.92-5.951 16.375-5.92 22.233 0l17.036 16.911c3.087 3.117 8.786 4.377 13.887 1.795l59.768-23.87c4.315-1.26 8.125-6.267 8.125-10.738v-22.704c0-8.628 7.054-15.683 15.714-15.683h48.967c8.661 0 15.714 7.055 15.714 15.683v22.704c0 4.567 3.779 9.543 8.661 11.022l66.791 28.435c3.842 2.142 10.203 1.197 13.226-1.795l15.021-15.052c5.983-5.889 16.375-5.889 22.233 0.031l34.734 34.64c2.928 2.96 4.566 6.928 4.566 11.148 0 4.188-1.637 8.123-4.597 11.084l-15.997 15.902c-3.18 3.244-4.093 9.604-1.764 13.951l24.216 60.335c1.165 4.283 6.236 8.062 10.801 8.123h21.256c8.691 0 15.745 7.055 15.745 15.745v48.968c0.002 8.691-7.052 15.746-15.744 15.746zM415.087 223.985c0-43.142-35.081-78.254-78.159-78.254-43.141 0-78.221 35.111-78.221 78.254 0 43.11 35.080 78.221 78.221 78.221 43.079 0 78.159-35.113 78.159-78.221z" horiz-adv-x="683" />
<glyph unicode="&#x64;" d="M319.419 145.005c1.629-1.441 3.634-2.193 5.451-3.259 1.19-0.689 2.224-1.566 3.509-2.067 3.885-1.63 7.958-2.569 12.156-2.569 4.166 0 8.239 1.002 12.187 2.631 0.344 0.125 0.72 0.063 1.065 0.188 2.82 1.316 5.358 2.945 7.644 4.95h0.031c0.063 0.063 0.125 0.063 0.188 0.125l102.193 88.079c13.44 11.56 14.945 31.815 3.384 45.238-11.623 13.456-31.892 14.928-45.238 3.352l-49.373-42.544v208.788c0 17.716-14.349 32.081-32.080 32.081-17.733 0-32.081-14.364-32.081-32.081v-208.067l-47.651 41.666c-13.314 11.67-33.553 10.354-45.269-3.024-11.655-13.329-10.307-33.6 3.038-45.254l100.847-88.237zM565.942 137.674c-17.732 0-32.080-14.349-32.080-32.080v-73.434h-385.058v73.434c0 17.733-14.349 32.080-32.080 32.080-17.733 0-32.081-14.349-32.081-32.080v-105.514c0-17.669 14.349-32.080 32.081-32.080h449.218c17.732 0 32.081 14.411 32.081 32.080v105.514c0 17.731-14.349 32.080-32.081 32.080z" horiz-adv-x="683" />
<glyph unicode="&#x65;" d="M650.316 473.046h-617.966c-17.843 0-32.35-14.423-32.35-32.266v-304.575c0-17.843 14.508-32.267 32.35-32.267h238.582v-64.366h-91.964c-17.885 0-32.309-14.425-32.309-32.267 0-17.926 14.424-32.351 32.309-32.351h325.523c17.843 0 32.267 14.425 32.267 32.351 0 17.842-14.424 32.267-32.267 32.267h-92.714v64.366h238.54c17.843 0 32.351 14.424 32.351 32.267v304.575c-0 17.843-14.509 32.266-32.351 32.266z" horiz-adv-x="683" />
<glyph unicode="&#x66;" d="M566.727 44.976l-162.055 252.025c-4.625 8.256-16.625 14.295-25.493 17.123l-0.306 52.285c-0.306 43.648-31.417 75.294-74.778 75.294-43.342 0-74.683-31.646-75.026-75.37v-53.050c-7.758-2.981-18.423-8.179-22.397-14.983l-172.909-252.865c-6.88-11.543-7.033-25.99-0.42-37.685 6.612-11.695 19.11-18.957 32.602-18.957h468.372c13.3 0 25.684 7.108 32.373 18.499 6.689 11.543 6.803 25.836 0.039 37.685zM261.862 307.473v60.694h0.077c0.153 23.544 19.454 42.654 42.998 42.654 23.544 0 42.903-19.111 43.055-42.654v-60.694h-86.13zM594.934 480h-110.916c-30.5 0-59.279-28.894-59.279-59.471v-106.1l31.8-49.916v176.578h163.889v-85.844l-54.273-0.153c-10.932 0-19.76-8.867-19.76-19.721 0-10.931 8.829-19.798 19.76-19.798l54.273 0.153v-69.714l-72.16 0.23c-10.932 0-19.76-8.791-19.76-19.721 0-10.931 8.829-19.798 19.76-19.798l72.16-0.229v-58.936l-23.047 0.153c-10.932 0-19.76-8.791-19.76-19.721 0-10.931 8.829-19.798 19.76-19.798l23.047-0.154v-83.55h-25.111c-0.306-11.008-3.134-22.015-8.829-31.876-6.154-10.473-15.020-18.88-25.417-24.614h35.010c31.111 0.688 58.095 28.207 58.095 59.471v393.059c-0 31.647-27.673 59.471-59.242 59.471z" horiz-adv-x="683" />
<glyph unicode="&#x67;" d="M239.928 393.531c3.655 13.781 15.969 23.468 30.219 23.812 15.063 0.344 27-8.813 31.25-22.406l75.875-241.845 62.5 140.563c5.031 11.313 16.156 18.719 28.531 19 11.313-0.469 23.782-6.594 29.344-17.656l39.749-79.436h59.938v224.5c0 22.063-17.907 39.938-40.001 39.938h-432.031c-22.093 0-39.969-17.875-39.969-39.938v-224.5h107.438l47.156 177.969zM517.646 151.563c-12.125 0-23.188 6.844-28.625 17.655l-18.282 36.563-69.406-156.095c-5.158-11.594-16.656-19-29.252-19-0.593 0-1.219 0.031-1.842 0.062-13.281 0.751-24.719 9.657-28.688 22.344l-68.094 217.094-25.125-94.812c-3.719-14.031-16.406-23.813-30.937-23.813h-132.063v-143.563c0-22.061 17.876-39.999 39.969-39.999h432.031c22.095 0 40.001 17.938 40.001 40v143.563h-79.687z" horiz-adv-x="683" />
<glyph unicode="&#x68;" d="M661.285 463.238h-474.363c-5.659 0-11.087-2.255-15.096-6.264l-165.561-165.541c-4.008-4.009-6.264-9.459-6.264-15.096v-104.736c0-5.596 2.256-11.024 6.264-15.034l165.561-165.541c4.010-4.009 9.438-6.264 15.096-6.264h474.363c11.819 0 21.382 9.521 21.382 21.297v435.818c0 11.776-9.563 21.361-21.381 21.361zM96.009 183.962c-22.092 0-40.007 17.873-40.007 40.028 0 22.113 17.915 40.007 40.007 40.007 22.070 0 39.986-17.894 39.986-40.007 0-22.154-17.915-40.028-39.986-40.028zM204.963 265.875c0 8.832 7.162 15.974 16.016 15.974 8.833 0 16.036-7.141 16.036-15.974v-83.751c0-8.853-7.204-16.036-16.036-16.036-8.853 0-16.016 7.183-16.016 16.036v83.751zM304.75 43.812h-83.773c-8.853 0-16.016 7.099-16.016 15.952v49.111c0 8.854 7.162 15.953 16.016 15.953 8.833 0 16.036-7.099 16.036-15.953v-33.075h67.736c8.77 0 15.973-7.183 15.973-16.036 0-8.853-7.203-15.952-15.973-15.952zM304.75 373.077h-67.736v-33.994c0-8.832-7.204-15.973-16.036-15.973-8.853 0-16.016 7.141-16.016 15.973v50.029c0 8.812 7.162 16.016 16.016 16.016h83.773c8.77 0 15.973-7.204 15.973-16.016 0-8.832-7.203-16.036-15.973-16.036zM461.668 43.812h-83.731c-8.812 0-16.036 7.099-16.036 15.952 0 8.854 7.224 16.036 16.036 16.036h83.731c8.895 0 16.036-7.183 16.036-16.036 0-8.853-7.14-15.952-16.035-15.952zM461.668 373.077h-83.731c-8.812 0-16.036 7.203-16.036 16.036 0 8.812 7.224 16.015 16.036 16.015h83.731c8.895 0 16.036-7.204 16.036-16.015 0-8.833-7.14-16.036-16.035-16.036zM634.641 59.764c0-1.086-0.125-2.171-0.293-3.173-1.503-7.351-7.976-12.779-15.659-12.779h-83.773c-8.895 0-16.036 7.099-16.036 15.952 0 8.854 7.14 16.036 16.036 16.036h67.737v33.075c0 8.854 7.14 15.953 16.036 15.953 8.77 0 15.952-7.099 15.952-15.953v-49.111zM634.641 182.124c0-8.853-7.183-16.036-15.952-16.036-8.895 0-16.036 7.183-16.036 16.036v83.751c0 8.833 7.14 15.974 16.036 15.974 8.77 0 15.952-7.141 15.952-15.974v-83.751zM634.641 389.113v-50.029c0-8.832-7.183-15.973-15.952-15.973-8.895 0-16.036 7.141-16.036 15.973v33.994h-67.737c-8.895 0-16.036 7.203-16.036 16.036 0 8.812 7.14 16.015 16.036 16.015h83.773c8.77 0 15.952-7.204 15.952-16.015v0 0z" horiz-adv-x="683" />
<glyph unicode="&#x69;" d="M397.041 480h-110.505c-10.704 0-19.373-8.668-19.373-19.404v-110.475c0-10.703 8.669-19.34 19.373-19.34h110.505c10.704 0 19.373 8.638 19.373 19.34v110.475c-0 10.735-8.67 19.404-19.373 19.404zM577.962 480h-110.475c-10.703 0-19.403-8.668-19.403-19.404v-110.475c0-10.703 8.7-19.34 19.403-19.34h110.475c10.703 0 19.372 8.638 19.372 19.34v110.475c0 10.735-8.669 19.404-19.372 19.404zM565.286 362.828h-85.156v85.126h85.156v-85.126zM397.041 117.219h-110.505c-10.704 0-19.373-8.638-19.373-19.341v-31.233h-83.153v264.136h31.202c10.703 0 19.404 8.638 19.404 19.34v110.475c0 10.735-8.701 19.404-19.404 19.404h-110.506c-10.703 0-19.372-8.668-19.372-19.404v-110.475c0-10.703 8.669-19.34 19.372-19.34h31.233v-288.172c0-13.269 10.767-24.034 24.035-24.034h107.188v-31.171c0-10.704 8.669-19.404 19.373-19.404h110.505c10.704 0 19.373 8.7 19.373 19.404v110.474c-0 10.704-8.67 19.341-19.373 19.341zM384.365 0.047h-85.156v85.125h85.156v-85.125zM577.992 117.219h-110.506c-10.703 0-19.403-8.638-19.403-19.341v-110.474c0-10.704 8.7-19.404 19.403-19.404h110.506c10.672 0 19.341 8.7 19.341 19.404v110.474c0 10.704-8.669 19.341-19.341 19.341zM397.041 298.61h-110.474c-10.704 0-19.404-8.637-19.404-19.341v-110.536c0-10.704 8.7-19.341 19.404-19.341h110.474c10.704 0 19.373 8.637 19.373 19.341v110.536c0 10.703-8.669 19.341-19.372 19.341z" horiz-adv-x="683" />
<glyph unicode="&#x6a;" d="M682.667 433.083v-418.167c0-9.75-8.125-18.333-17.917-18.333h-217.625c-9.792 0-17.916 8.583-17.916 18.333v10.25l72.542 71.249 54.625 53.834 16.625 16.167c6 5.584 10.667 13.25 14.958 21.75 0.417 2.167 1.708 4.75 1.708 7.708 2.958 5.125 4.25 11.959 4.25 17.918 0.417 2.125 0.417 4.707 0.417 7.707-0.417 7.25-1.708 16.167-4.667 23 0 0.875 0 1.292-0.459 1.75v1.25c-3.417 7.667-8.958 14.917-14.083 21.75-0.833 0.416-1.708 0.834-2.125 1.292l-4.251 4.291-71.708 71.666-56.292 56.75-11.541 10.25v19.584c0 9.833 8.125 18.333 17.916 18.333h217.625c9.792 0 17.916-8.499 17.916-18.333zM253.417 433.083v-140.791h-90c-1.292 0-2.125 0-3-0.875 0 0 0 0-0.417 0-2.583 0.459-5.542 0.875-8.958 0.875-41.375 0-74.668-33.293-74.668-74.668 0-40.958 33.293-74.666 74.668-74.666 3.416 0 6.375 0.458 8.958 0.875 0.417 0 0.417 0 0.417 0 0.875-0.875 1.708-0.875 3-0.875h90v-128.041c0-9.75-8.083-18.333-17.917-18.333h-217.583c-9.833 0-17.916 8.583-17.916 18.334v418.166c0 9.834 8.084 18.334 17.916 18.334h217.583c9.833 0 17.916-8.5 17.916-18.334zM551.25 220.625v-3c0-2.958-0.875-5.541-1.708-8.125 0-1.25-0.415-2.084-1.292-2.959-1.25-3.833-3.417-6.834-5.958-9.792l-149.332-148.916c-4.707-5.166-11.083-8.166-17.501-9-3.832-0.834-7.666-0.834-11.082 0-2.125 0.416-4.292 1.333-6 1.75-3.833 1.666-7.666 3.833-10.666 7.25-12.375 12.333-12.375 32.834 0 45.166l94.291 94.334h-285c-2.542 0-5.125 0.416-7.25 0.834-0.417 0-0.417 0-0.833 0.458-13.667 3.416-23.916 16.209-23.916 31.125 0 14.5 10.25 26.917 23.916 30.334 0.417 0.417 0.417 0.417 0.833 0.417 2.125 0.417 4.708 0.833 7.25 0.833h285l-12.791 12.834-83.208 83.166c-12.333 12.375-12.333 32.834 0 45.667 3.416 3 6.834 5.083 10.666 6.833 2.168 0.834 3.875 1.25 6 1.667 2.125 0.459 4.251 0.459 6.375 0.459 1.708 0 3.416 0 5.125-0.459 6.416-0.834 12.375-3.833 17.501-8.5l37.541-37.584 113.083-113.042c0-0.416 0.417-0.875 0.833-1.292 2.167-2.542 4.291-5.5 6-9.375 0.415-0.416 0.415-0.416 0.415-0.875 1.293-2.958 1.708-6.792 1.708-10.208z" horiz-adv-x="683" />
<glyph unicode="&#x6b;" d="M661.333 462.75h-640c-11.959 0-21.334-9.834-21.334-21.334v-434.834c0-11.916 9.374-21.334 21.334-21.334h172.792c1.708 0 3.416 1.75 3.416 3.416v16.666c0 2.084-1.708 3.418-3.416 3.418h-20.459c-4.708 0-8.125 5.082-8.125 10.666v42.666c0 6 3.417 10.666 8.125 10.666h90c4.709 0 8.541-4.668 8.541-10.666v-42.666c0-5.585-3.832-10.666-8.541-10.666h-20.041c-1.708 0-3.417-1.334-3.417-3.418v-16.666c0-1.666 1.708-3.416 3.417-3.416h195.834c1.708 0 3.416 1.75 3.416 3.416v16.666c0 2.084-1.708 3.418-3.416 3.418h-20.458c-4.709 0-8.541 5.082-8.541 10.666v42.666c0 6 3.832 10.666 8.541 10.666h90c4.708 0 8.125-4.668 8.125-10.666v-42.666c0-5.585-3.417-10.666-8.125-10.666h-20.041c-1.709 0-3.416-1.334-3.416-3.418v-16.666c0-1.666 1.708-3.416 3.416-3.416h172.375c11.958 0 21.333 9.416 21.333 21.334v434.834c0 11.5-9.375 21.334-21.333 21.334zM355 165.333h-236.375c-14.5 0-26.459 12.333-26.459 27.334 0 14.916 11.959 27.25 26.459 27.25h236.375c14.5 0 26.459-12.334 26.459-27.25-0-15-11.959-27.334-26.459-27.334zM562.792 290.75h-442.916c-15.334 0-27.709 12.833-27.709 28.584 0 15.833 12.376 28.583 27.709 28.583h442.917c15.333 0 27.708-12.75 27.708-28.583-0-15.75-12.375-28.584-27.709-28.584z" horiz-adv-x="683" />
<glyph unicode="&#x6d;" d="M115.151 88.536h439.126c21.874 0 39.603 17.69 39.603 39.565v312.296c-0 21.874-17.73 39.603-39.603 39.603h-439.126c-21.893 0-39.603-17.73-39.603-39.603v-312.296c0-21.874 17.709-39.565 39.603-39.565zM654.896 30.781c-2.533 4.912-7.637 7.981-13.125 7.981h-211.216c-3.723 0-7.329-1.458-10.055-3.952l-11.36-31.468h-139.013l-19.648 31.122c-2.782 2.724-6.542 4.298-10.438 4.298h-199.148c-5.295 0-10.208-2.916-12.913-7.522-2.609-4.682-2.59-10.322 0.172-14.966l24.291-41.024c2.667-4.45 7.502-7.252 12.779-7.252h548.188c4.912 0 9.44 2.418 12.241 6.447l28.36 40.985c3.069 4.567 3.492 10.401 0.882 15.351z" horiz-adv-x="683" />
<glyph unicode="&#x6e;" d="M541.582 480.341c-6.708 0-6.708 0-6.708-8.808 0-7.334-6.77-38.13-28.397-46.922-36.546-23.46-36.546-70.397-14.919-93.843 6.77-7.351 14.919-14.669 28.397-23.477 0 0 0 0 0-319.644v-19.307h36.547v19.308c0 0 0 0 0 319.644 21.627 16.126 43.255 39.587 43.255 70.398 0 32.252-43.255 86.509-58.174 102.65zM377.404 271.31c-20.31 26.956-2.005 58.598 26.14 100.316 17.803 26.548 34.728 51.639 29.714 73.893-2.633 11.644-10.846 20.639-24.51 26.783-3.762 1.708-8.087 3.291-13.603 4.795-41.437 9.263-88.969-8.948-145.168-55.557-63.408-51.059-159.759-168.504-165.37-282.187-7.366-68.267 25.701-125.814 88.421-154.086 27.112-12.161 56.827-17.176 83.876-13.979 73.407 9.905 177.233 76.165 181.37 173.269 7.272 45.010-11.221 66.621-34.603 93.952-7.962 9.325-16.925 19.731-26.265 32.802zM170.958 164.93c-20.436 9.216-28.773 34.933-18.618 57.516 10.155 22.552 34.917 33.365 55.352 24.213 20.405-9.184 28.805-34.932 18.587-57.469-10.124-22.567-34.917-33.413-55.322-24.26zM261.228 50.274c-10.281-22.943-35.512-33.977-56.293-24.636-20.719 9.341-29.213 35.543-18.931 58.425 10.344 23.006 35.575 33.977 56.293 24.636 20.781-9.34 29.275-35.481 18.931-58.425zM312.883 317.212c-9.623-21.455-33.13-31.751-52.564-23.022-19.401 8.698-27.332 33.162-17.709 54.585 9.685 21.408 33.224 31.704 52.594 22.991 19.402-8.73 27.269-33.161 17.678-54.554z" horiz-adv-x="683" />
<glyph unicode="&#x6f;" d="M683.008 151.12c0 56.001-34.712 103.844-83.783 123.178-2.040 86.55-72.879 156.12-159.95 156.12-82.034 0-149.565-61.703-158.888-141.158-13.964 8.741-30.404 13.777-48.010 13.777-49.987 0-90.505-40.477-90.505-90.463 0-3.767 0.25-7.43 0.708-11.092-13.484 7.055-28.822 11.092-45.096 11.092-53.691 0-97.143-43.474-97.143-97.207 0-48.863 36.064-89.277 83.096-96.103 3.663-0.666 7.451-0.998 11.322-0.998h458.6c5.077 0 12.695 0.082 17.439 1.164 64.845 8.574 112.21 64.512 112.21 131.689z" horiz-adv-x="683" />
<glyph unicode="&#x70;" d="M341.675 480.341c-141.406 0-256-114.625-256-256 0-141.406 114.594-256 256-256 141.375 0 256 114.594 256 256 0 141.375-114.625 256-256 256zM453.361 147.467h-138.343c-13.25 0-24 10.75-24 24v163.312c0 13.25 10.75 24 24 24s24-10.75 24-24v-139.312h114.344c13.25 0 24-10.75 24-24 0-13.25-10.75-24-24-24z" horiz-adv-x="683" />
<glyph unicode="&#x71;" d="M582.671 480h-176.626c-5.69 0-10.754-3.376-12.942-8.628-2.127-5.19-0.938-11.238 3.063-15.224l176.628-176.19c2.688-2.626 6.252-4.064 9.878-4.064 1.813 0 3.627 0.375 5.378 1.063 5.189 2.188 8.566 7.253 8.566 12.942v176.128c0 7.751-6.189 13.972-13.943 13.972zM273.622 474.482c-2.626 2.61-6.127 4.048-9.816 4.048h-163.811c-7.69 0-13.942-6.237-13.942-13.942v-482.646c0-7.691 6.252-13.943 13.942-13.943h482.677c7.754 0 13.943 6.252 13.943 13.943v164.935c0 3.689-1.438 7.252-4.064 9.942l-318.929 317.663zM217.6 62.034c-21.32 0-38.576 17.257-38.576 38.577 0 21.258 17.256 38.514 38.576 38.514 21.321 0 38.578-17.257 38.578-38.514 0-21.32-17.257-38.577-38.577-38.577zM217.6 283.334c-21.32 0-38.576 17.257-38.576 38.577 0 21.257 17.256 38.514 38.576 38.514 21.321 0 38.578-17.257 38.578-38.514 0-21.32-17.257-38.577-38.577-38.577zM336.8 172.7c-21.289 0-38.546 17.256-38.546 38.546 0 21.289 17.257 38.514 38.546 38.514 21.32 0 38.577-17.225 38.577-38.514 0-21.289-17.257-38.546-38.577-38.546zM456.001 62.034c-21.258 0-38.514 17.257-38.514 38.577s17.256 38.514 38.514 38.514c21.319 0 38.576-17.195 38.576-38.514 0-21.32-17.257-38.577-38.576-38.577z" horiz-adv-x="683" />
<glyph unicode="&#x72;" d="M244.489-31.552c-8.597 0-17.195 2.777-24.462 8.407l-174.764 136c-17.385 13.543-20.505 38.613-6.923 55.96 13.467 17.346 38.536 20.505 55.884 6.923l144.712-112.68 344.393 403.435c14.342 16.739 39.411 18.678 56.15 4.413s18.755-39.45 4.451-56.188l-369.12-432.309c-7.837-9.244-19.060-13.961-30.32-13.961v0z" horiz-adv-x="683" />
<glyph unicode="&#x73;" d="M682.924 159.705v305.243h-0.125v0.291c0 8.456-6.831 15.286-15.287 15.286l-651.845-0.25c-8.456 0-15.286-6.831-15.286-15.286v-355.932h0.166v-0.583c0-8.414 6.831-15.245 15.287-15.245h68.766v-109.46c0-6.748 4.415-12.579 10.83-14.577 1.457-0.499 2.999-0.666 4.457-0.666 4.998 0 9.788 2.416 12.704 6.748l164.732 118.040 390.357 0.166c8.456 0 15.287 6.831 15.287 15.245l-0.043 50.981z" horiz-adv-x="683" />
<glyph unicode="&#x74;" d="M585.346 202.726l80.119 192.762c1.665 4.522 1.032 9.599-1.587 13.565-2.856 3.966-7.297 6.306-12.216 6.306l-485.139-0.198-22.924 51.919c-0.555 1.071-1.468 12.653-27.685 12.653h-55.846c-15.865 0-32.246 3.57-41.646-15.389-1.349-3.332-2.142-6.901-2.142-10.55v-0.079c0-0.079 0.040-0.159 0.040-0.278 0.079-3.688 0.872-7.457 2.261-11.106 0.992-2.974 2.538-5.474 4.244-8.012 0.317-0.476 0.635-0.992 0.951-1.428 6.505-8.686 16.341-14.715 28.042-14.715h55.846c0.119 0 0.198 0.079 0.317 0.079l168.607-330.868c-22.846-9.122-39.028-31.333-39.028-57.433 0-34.19 27.685-61.954 61.953-61.954 34.19 0 61.954 27.764 61.954 61.954 0 2.539 0 31.017 0 33.476l136.777 0.079c0-1.983 0.793-30.462 0.793-33.555 0-34.19 27.764-61.954 62.033-61.954 34.19 0 61.954 27.764 61.954 61.954 0 27.923-18.643 51.324-44.026 59.019-1.032 0.555-1.904 1.428-2.936 1.983-2.697 11.026-12.295 19.435-24.193 19.435l-228.24 0.079-42.44 82.817 290.513 0.079c6.107 0 11.501 3.729 13.643 9.361z" horiz-adv-x="683" />
<glyph unicode="&#x75;" d="M510.995 279.063l-234.922 165.563v-81.25l121.547-84.313zM149.761 282.938c0-1.375 0.375-2.625 0.781-3.875h65.719c0.406 1.25 0.781 2.5 0.781 3.875v131.563c0 0.187-0.125 0.375-0.125 0.563l0.186 64.938c-36.781 0-67.5-29.813-67.5-66.531h0.156v-130.531zM143.105 239.063v-261.125c0-5.469 4.438-9.938 9.938-9.938h377.266c5.5 0 9.938 4.469 9.938 9.938v261.125h-397.142zM368.62 26.719c0-4.406-3.563-8-8-8h-34.015c-4.438 0-8 3.594-8 8v39.313c0 4.438 3.562 8.001 8 8.001h34.015c4.438 0 8-3.563 8-8.001v-39.313z" horiz-adv-x="683" />
<glyph unicode="&#x76;" d="M655.407 465.997c0 7.741-6.301 14.041-14.043 14.003l-116.885-0.057v-43.054c0-5.427-2.997-9.81-6.755-9.81h-51.385c-3.719 0-6.755 4.383-6.755 9.81v43.016l-242.499-0.076v-42.94c0-5.427-3.036-9.81-6.755-9.81h-51.385c-3.719 0-6.718 4.383-6.718 9.81v42.902l-111.117-0.019c-7.779 0-14.041-6.3-14.041-14.041l0.152-483.689c0-7.742 6.301-14.041 14.079-14.041l600.253 0.228c7.741 0.075 14.041 6.375 14.041 14.117l-0.19 483.651zM190.027 23.331h-101.972v72.635h101.972v-72.635zM190.027 139.761h-101.972v79.998h101.972v-79.999zM324.863 23.331h-101.971v72.635h101.971v-72.635zM324.863 139.761h-101.971v79.998h101.971v-79.999zM459.737 23.331h-102.009v72.635h102.010v-72.635zM459.737 139.761h-102.009v79.998h102.010v-79.999zM594.572 23.331h-101.971v72.635h101.971v-72.635zM594.572 139.761h-101.971v79.998h101.971v-79.999zM594.572 274.236h-506.516v72.692h506.516v-72.692z" horiz-adv-x="683" />
<glyph unicode="&#x77;" d="M525.558 480.341h-367.766c-6.643 0-12.031-5.389-12.031-12.031v-487.938c0-6.642 5.389-12.031 12.031-12.031h367.766c6.643 0 12.032 5.389 12.032 12.031v487.938c0 6.642-5.389 12.031-12.032 12.031zM309.153 47.046c0-8.898-7.175-16.041-16.042-16.041h-91.173c-8.867 0-16.041 7.144-16.041 16.041v47.248c0 8.835 7.175 16.041 16.041 16.041h91.174c8.867 0 16.042-7.206 16.042-16.041v-47.248zM309.153 190.355c0-8.898-7.175-16.041-16.042-16.041h-91.173c-8.867 0-16.041 7.144-16.041 16.041v47.233c0 8.867 7.175 16.042 16.041 16.042h91.174c8.867 0 16.042-7.175 16.042-16.042v-47.233zM492.942 47.046c0-8.898-7.175-16.041-16.041-16.041h-91.237c-8.866 0-16.041 7.144-16.041 16.041v47.248c0 8.835 7.175 16.041 16.041 16.041h91.236c8.866 0 16.041-7.206 16.041-16.041v-47.248zM492.942 190.355c0-8.898-7.175-16.041-16.041-16.041h-91.237c-8.866 0-16.041 7.144-16.041 16.041v47.233c0 8.867 7.175 16.042 16.041 16.042h91.236c8.866 0 16.041-7.175 16.041-16.042v-47.233zM498.864 360.562c0-8.866-7.175-16.042-16.042-16.042h-280.885c-8.867 0-16.041 7.175-16.041 16.042v50.882c0 8.867 7.175 16.042 16.041 16.042h280.885c8.867 0 16.042-7.175 16.042-16.042v-50.882z" horiz-adv-x="683" />
<glyph unicode="&#x78;" d="M489.808 310.754l-0.94-92.487c0-32.677-23.373-60.154-54.421-66.295 0-7.331 0.313-32.928 0.313-34.181 0-23.373-17.608-42.264-39.32-42.264h-24.342v-75.224c0-17.921-13.785-32.301-30.391-32.301-16.621 0-30.062 14.38-30.062 32.301v75.223h-24.688c-21.774 0-39.304 18.892-39.304 42.264 0 1.253 0.282 26.85 0.282 34.181-31.048 6.14-54.076 33.617-54.076 66.294l0.971 92.487h295.977zM216.544 480h248.48v-113.885h-248.481v113.885z" horiz-adv-x="683" />
<glyph unicode="&#x79;" d="M675.331-5.245l-76.75 81.546h-505.777l-85.495-81.546c-4.838-4.176-6.555-10.875-4.383-16.83 2.212-5.955 7.877-9.925 14.267-9.925h648.255c6.369 0 12.075 3.969 14.266 9.925 2.232 5.955 0.455 12.653-4.384 16.83zM286.063 419.233h110.514c16.789 0 30.394 13.605 30.394 30.394 0 16.768-13.605 30.373-30.394 30.373h-110.514c-16.769 0-30.393-13.605-30.393-30.373 0-16.789 13.626-30.394 30.393-30.394zM71.011 146.019h540.678c8.352 0 15.176 6.824 15.176 15.218v27.457c0 2.42-0.579 4.776-1.612 6.926l-1.034 1.902c-0.248 0.517-0.538 1.034-0.867 1.51-63.227 94.428-168.634 150.811-282.021 150.811-113.367 0-218.773-56.383-282-150.811-0.289-0.413-0.538-0.806-0.764-1.24l-1.013-1.882c-1.2-2.212-1.799-4.714-1.799-7.216v-27.498c0.062-8.353 6.822-15.177 15.258-15.177z" horiz-adv-x="683" />
<glyph unicode="&#x7a;" d="M449.054 398.631h-34.433c0.127 0.942 0.502 1.759 0.502 2.702v59.189c0 10.745-8.671 19.478-19.415 19.478h-108.75c-10.744 0-19.478-8.733-19.478-19.478v-59.189c0-0.942 0.44-1.759 0.565-2.702h-34.433c-8.577 0-15.583-6.975-15.583-15.582v-399.433c0-8.639 7.007-15.614 15.583-15.614h215.44c8.546 0 15.582 6.975 15.582 15.614v399.433c-0 8.608-7.038 15.583-15.583 15.583zM306.406 401.332v39.742h69.824v-39.742c0-0.942 0.377-1.759 0.502-2.702h-70.859c0.157 0.943 0.534 1.76 0.534 2.702z" horiz-adv-x="683" />
<glyph unicode="&#x7b;" d="M586.58 415.475c-19.631 17.659-83.329 15.4-108.019 9.672 0.191 6.395 10.913 24.913 10.913 31.468v11.485c0 6.555-3.627 11.9-8.082 11.9h-280.085c-4.518 0-8.018-5.346-8.018-11.9v-11.485c0-6.555 10.659-25.072 10.786-31.436-24.659 5.696-88.324 7.954-107.956-9.705-18.74-16.926-21.54-47.185-8.114-89.851 25.581-81.419 130.386-134.108 177.539-160.74 17.245-29.844 31.339-50.78 31.339-84.125 0-79.67-77.093-11.899-77.093-112.759h243.146c0 100.86-77.188 33.089-77.188 112.76 0 33.344 14.127 54.28 31.404 84.125 47.185 26.632 151.958 79.32 177.507 160.74 13.395 42.666 10.659 72.925-8.082 89.851zM122.56 341.977c-6.618 20.968-11.804 30.481 1.145 42.094 11.74 10.595 68.821 7.445 88.483 2.227 3.341-65.638 12.44-94.019 23.703-128.763 0 0 5.345-15.463 12.345-32.135-36.526 25.74-109.451 64.556-125.677 116.577zM561.063 340.927c-16.29-51.989-89.247-90.806-125.678-116.514 7.063 16.704 12.377 32.103 12.377 32.103 11.137 34.713 20.331 63.157 23.64 128.796 19.726 5.219 76.775 8.399 88.546-2.26 12.855-11.644 7.668-21.094 1.114-42.125z" horiz-adv-x="683" />
<glyph unicode="&#x7c;" d="M300.594 423.472h-7.886c-3.233 0-6.466-1.136-8.917-3.197l-124.368-104.831h-72.504c-22.736 0-34.991-14.671-34.991-30.408v-120.994c0-13.073 10.941-27.141 36.198-27.141h71.297l124.334-104.866c2.487-2.061 6.608-3.197 9.805-3.197h7.034c7.531 0 13.641 6.11 13.641 13.641v367.352c0 7.531-6.11 13.641-13.641 13.641zM502.44 223.225c0 102.735-84.617 152.645-88.241 154.706-12.576 7.318-28.74 2.913-35.986-9.698-7.282-12.611-2.949-28.739 9.698-35.986 0.604-0.356 61.812-36.447 61.882-111.083 0.036-0.711 4.653-69.307-63.055-104.085-12.966-6.643-18.082-22.522-11.404-35.488 4.653-9.094 13.89-14.351 23.481-14.351 4.050 0 8.17 0.959 12.007 2.949 98.615 50.621 91.901 150.868 91.616 153.036zM629.688 222.373c0 169.058-139.077 251.046-145.009 254.457-12.503 7.247-28.667 2.913-35.914-9.627-7.317-12.575-3.019-28.702 9.556-36.021 4.831-2.842 118.65-70.834 118.72-210.762 0.39-5.505 8.064-135.63-121.562-202.238-12.966-6.642-18.082-22.522-11.404-35.488 4.653-9.094 13.89-14.351 23.481-14.351 4.050 0 8.17 0.959 12.007 2.948 161.526 82.947 150.584 246.251 150.124 251.082z" horiz-adv-x="683" />
<glyph unicode="&#x7d;" d="M300.965 423.13h-7.886c-3.233 0-6.466-1.136-8.917-3.197l-124.368-104.831h-72.504c-22.735 0-34.991-14.671-34.991-30.408v-120.994c0-13.073 10.941-27.141 36.198-27.141h71.297l124.334-104.866c2.487-2.061 6.608-3.197 9.805-3.197h7.034c7.531 0 13.641 6.11 13.641 13.641v367.353c0 7.531-6.109 13.641-13.64 13.641zM502.812 222.883c0 102.734-84.618 152.646-88.241 154.706-12.575 7.318-28.739 2.913-35.986-9.698-7.283-12.611-2.949-28.739 9.697-35.986 0.604-0.356 61.812-36.448 61.882-111.084 0.036-0.711 4.654-69.306-63.055-104.085-12.966-6.643-18.081-22.522-11.404-35.488 4.654-9.094 13.89-14.351 23.481-14.351 4.050 0 8.171 0.959 12.007 2.949 98.615 50.622 91.901 150.87 91.617 153.037zM630.058 222.031c0 169.059-139.076 251.046-145.008 254.457-12.505 7.247-28.668 2.913-35.914-9.627-7.318-12.575-3.019-28.703 9.556-36.022 4.831-2.842 118.65-70.834 118.72-210.762 0.39-5.505 8.063-135.63-121.563-202.238-12.966-6.642-18.082-22.522-11.404-35.488 4.653-9.094 13.889-14.351 23.481-14.351 4.050 0 8.171 0.959 12.007 2.948 161.527 82.948 150.585 246.251 150.124 251.083z" horiz-adv-x="683" />
<glyph unicode="&#x7e;" d="M593.367 19.92l-212.148 442.354c-5.825 10.956-17.758 17.726-30.95 17.726-13.224 0-25.156-6.77-30.95-18.057l-229.56-441.363c-5.825-10.642-5.825-24.18 0.314-34.824 6.14-10.988 17.727-17.757 29.974-17.757h442.37c12.563 0 23.834 6.769 29.974 17.757 6.108 10.957 6.454 23.834 0.976 34.162zM319.318 318.149c0 15.476 12.563 28.053 28.022 28.053 15.49 0 28.053-12.578 28.053-28.053v-137.654c0-15.49-12.563-28.053-28.053-28.053-15.459 0-28.022 12.563-28.022 28.053v137.654zM347.34 43.124c-16.12 0-29.313 13.224-29.313 29.344 0 16.12 13.192 29.344 29.313 29.344 16.468 0 29.69-13.224 29.69-29.344 0-16.12-13.224-29.344-29.69-29.344z" horiz-adv-x="683" />
<glyph unicode="&#xe000;" d="M585.177 480h-487.688c-6.391 0-11.844-5.438-11.844-12.156v-487.688c0-6.719 5.453-12.156 11.844-12.156h487.688c6.406 0 11.843 5.438 11.843 12.156v487.688c0 6.719-5.438 12.156-11.843 12.156zM329.365 388.563c19.625 0 35.343-15.703 35.343-35.328 0-19.25-15.719-34.953-35.343-34.953-19.25 0-34.953 15.702-34.953 34.953 0 19.624 15.704 35.328 34.953 35.328zM387.084 63.438h-45.75c-13.125 0-24 10.563-24 24v138.563h-29.765c-13.438 0-24 10.875-24 24s10.563 24 24 24h53.766c13.125 0 24-10.875 24-24v-138.563h21.75c13.125 0 24-10.875 24-24 0-13.438-10.875-24-23.999-24z" horiz-adv-x="683" />
<glyph unicode="&#xe001;" d="M453.13 474.248c-3.167 3.15-9.405 5.752-13.887 5.752h-195.787c-4.482 0-10.737-2.603-13.919-5.752l-138.451-138.451c-3.15-3.182-5.753-9.436-5.753-13.919v-195.787c0-4.483 2.603-10.721 5.753-13.887l138.451-138.466c3.182-3.166 9.436-5.736 13.919-5.736h195.787c4.483 0 10.721 2.571 13.887 5.736l138.466 138.466c3.167 3.166 5.737 9.404 5.737 13.887v195.788c0 4.483-2.571 10.737-5.737 13.919l-138.466 138.451zM456.358 187.878h-231.383c-19.938 0-36.113 16.176-36.113 36.113s16.175 36.113 36.113 36.113h231.383c19.938 0 36.113-16.176 36.113-36.113s-16.175-36.113-36.113-36.113z" horiz-adv-x="683" />
<glyph unicode="&#xe002;" d="M584.747 480.341h-487.5c-6.626 0-12-5.375-12-12v-488c0-6.625 5.376-12 12-12h487.5c6.625 0 12 5.375 12 12v488c0 6.625-5.374 12-11.999 12zM492.965 299.966l-157.812-184.875c-5.094-6-12.375-9.094-19.688-9.094-5.563 0-11.188 1.813-15.906 5.469l-74.719 58.187c-11.313 8.781-13.312 25.062-4.563 36.343 8.813 11.313 25.094 13.344 36.375 4.531l55.188-42.969 141.688 166.031c9.313 10.875 25.656 12.25 36.531 2.875 10.874-9.281 12.156-25.625 2.906-36.5z" horiz-adv-x="683" />
<glyph unicode="&#xe003;" d="M585.424 480.341h-487.467c-6.628 0-12-5.387-12-12.015v-487.954c0-6.628 5.371-12.031 12-12.031h487.467c6.628 0 11.968 5.404 11.968 12.031v487.954c0 6.628-5.34 12.015-11.968 12.015zM509.533 220.469c0-6.596-2.639-12.595-7.099-16.899-4.303-4.397-10.303-7.069-16.9-7.069h-119.491v-123.81c0-6.692-2.67-12.596-7.037-16.995-4.365-4.336-10.335-6.974-16.962-6.974-13.256 0-23.983 10.68-23.983 23.967v123.811l-120.92-0.031c-13.272 0-24.014 10.711-24.014 23.966 0 13.272 10.743 23.999 24.014 23.999h120.92v116.633c0 13.24 10.728 23.983 23.983 23.983 13.224 0 23.998-10.743 23.998-23.983v-116.586h119.491c13.288 0 24-10.711 24-24.015z" horiz-adv-x="683" />
</font>
</defs>
</svg>
