<svg xmlns="http://www.w3.org/2000/svg" xmlns:xlink="http://www.w3.org/1999/xlink" version="1.1" x="0px" y="0px" viewBox="0 0 75 47.4" enable-background="new 0 0 75 47.4" xml:space="preserve"><style>.style0{fill:	#0F88C9;}.style1{fill:	#FFFFFF;}</style><g><path d="M74.7 42.1c0 2.8-2.2 5-5 5H5.4c-2.8 0-5-2.2-5-5V5.3c0-2.8 2.2-5 5-5h64.2c2.8 0 5 2.2 5 5V42.1z" class="style0"/><g><g><path d="M8.5 7.8h2.9c0.7 0 1.3 0.1 1.8 0.3c0.5 0.2 1 0.5 1.4 0.8c0.4 0.4 0.7 0.8 0.9 1.4 c0.2 0.5 0.3 1.1 0.3 1.8c0 0.7-0.1 1.3-0.3 1.8c-0.2 0.5-0.5 1-0.9 1.4c-0.4 0.4-0.8 0.7-1.4 0.8c-0.5 0.2-1.1 0.3-1.8 0.3H8.5 V7.8z M11.4 15c0.4 0 0.8-0.1 1.2-0.2c0.4-0.1 0.7-0.3 0.9-0.6c0.2-0.2 0.4-0.6 0.6-0.9c0.1-0.4 0.2-0.8 0.2-1.3 c0-0.5-0.1-0.9-0.2-1.3c-0.1-0.4-0.3-0.7-0.6-0.9c-0.3-0.2-0.6-0.4-0.9-0.6c-0.4-0.1-0.7-0.2-1.2-0.2h-1.3V15H11.4z" class="style1"/><path d="M16.8 13.3c0-0.5 0.1-0.9 0.2-1.3c0.2-0.4 0.4-0.7 0.6-1c0.3-0.3 0.6-0.5 1-0.7c0.4-0.2 0.8-0.2 1.3-0.2 c0.4 0 0.8 0.1 1.2 0.2c0.3 0.2 0.6 0.4 0.9 0.6c0.2 0.3 0.4 0.6 0.5 0.9c0.1 0.4 0.2 0.7 0.2 1.2c0 0 0 0.1 0 0.2 c0 0.1 0 0.1 0 0.2c0 0.1 0 0.1 0 0.2h-4.3c0 0.3 0.1 0.5 0.2 0.7c0.1 0.2 0.2 0.4 0.4 0.5c0.2 0.1 0.4 0.2 0.6 0.3 c0.2 0.1 0.4 0.1 0.7 0.1c0.2 0 0.5 0 0.7-0.1c0.2-0.1 0.4-0.1 0.6-0.2c0.2-0.1 0.4-0.2 0.5-0.3l0.6 1.1 c-0.2 0.2-0.4 0.3-0.7 0.4c-0.2 0.1-0.5 0.2-0.8 0.3c-0.3 0.1-0.6 0.1-1 0.1c-0.5 0-1-0.1-1.4-0.3c-0.4-0.2-0.8-0.4-1-0.7 c-0.3-0.3-0.5-0.6-0.7-1C16.9 14.1 16.8 13.7 16.8 13.3z M21.1 12.5c0-0.2 0-0.4-0.1-0.6c-0.1-0.2-0.2-0.3-0.3-0.4 c-0.1-0.1-0.2-0.2-0.4-0.2c-0.1-0.1-0.3-0.1-0.5-0.1c-0.4 0-0.7 0.1-1 0.3c-0.3 0.2-0.4 0.5-0.5 0.9H21.1z" class="style1"/><path d="M23.9 7.8h1.5v6.5c0 0.2 0 0.3 0 0.4c0 0.1 0.1 0.2 0.1 0.3c0.1 0.1 0.1 0.1 0.2 0.1c0.1 0 0.2 0 0.3 0 c0 0 0.1 0 0.1 0c0 0 0 0 0.1 0c0 0 0 0 0.1 0v1.3c0 0-0.1 0-0.1 0c-0.1 0-0.2 0-0.3 0c-0.2 0-0.4 0-0.7-0.1 c-0.2 0-0.4-0.1-0.6-0.3c-0.2-0.1-0.3-0.3-0.5-0.6c-0.1-0.3-0.2-0.6-0.2-1.1V7.8z" class="style1"/><path d="M27.3 7.8h1.5v6.5c0 0.2 0 0.3 0 0.4c0 0.1 0.1 0.2 0.1 0.3c0.1 0.1 0.1 0.1 0.2 0.1c0.1 0 0.2 0 0.3 0 c0 0 0.1 0 0.1 0c0 0 0 0 0.1 0c0 0 0 0 0.1 0v1.3c0 0-0.1 0-0.1 0c-0.1 0-0.2 0-0.3 0c-0.2 0-0.4 0-0.7-0.1 c-0.2 0-0.4-0.1-0.6-0.3c-0.2-0.1-0.3-0.3-0.5-0.6c-0.1-0.3-0.2-0.6-0.2-1.1V7.8z" class="style1"/></g><g><path d="M8.7 20.2h3c0.4 0 0.7 0.1 1.1 0.2c0.3 0.1 0.6 0.3 0.8 0.5c0.2 0.2 0.4 0.5 0.5 0.8 c0.1 0.3 0.2 0.7 0.2 1.1c0 0.4-0.1 0.8-0.2 1.1c-0.1 0.3-0.3 0.6-0.5 0.8c-0.2 0.2-0.5 0.4-0.8 0.5c-0.3 0.1-0.7 0.2-1.1 0.2 H9.5v3.3H8.7V20.2z M11.5 24.7c0.3 0 0.5 0 0.8-0.1c0.2-0.1 0.4-0.2 0.6-0.4c0.2-0.2 0.3-0.4 0.4-0.6c0.1-0.2 0.1-0.5 0.1-0.8 c0-0.3 0-0.5-0.1-0.8c-0.1-0.2-0.2-0.4-0.4-0.6c-0.2-0.2-0.4-0.3-0.6-0.4C12.1 21 11.8 21 11.5 21h-2v3.7H11.5z" class="style1"/><path d="M15.7 22.7h0.8v1.1c0 0.1 0 0.1 0 0.2c0 0.1 0 0.1 0 0.2c0 0.1 0 0.1 0 0.1h0c0.1-0.2 0.2-0.4 0.3-0.6 c0.1-0.2 0.3-0.4 0.4-0.5c0.2-0.1 0.3-0.3 0.6-0.3c0.2-0.1 0.4-0.1 0.7-0.1c0 0 0.1 0 0.1 0c0 0 0.1 0 0.1 0c0 0 0.1 0 0.1 0v0.8 c0 0-0.1 0-0.1 0c0 0-0.1 0-0.1 0c0 0-0.1 0-0.1 0c-0.2 0-0.4 0-0.6 0.1c-0.2 0.1-0.4 0.2-0.5 0.3c-0.2 0.1-0.3 0.3-0.4 0.5 c-0.1 0.2-0.2 0.4-0.3 0.6c-0.1 0.2-0.1 0.4-0.1 0.6c0 0.2 0 0.4 0 0.6v2.6h-0.8V22.7z" class="style1"/><path d="M19.5 25.7c0-0.5 0.1-0.9 0.2-1.3c0.2-0.4 0.4-0.7 0.6-1c0.3-0.3 0.6-0.5 1-0.6c0.4-0.1 0.8-0.2 1.2-0.2 c0.4 0 0.8 0.1 1.1 0.2c0.3 0.2 0.6 0.4 0.8 0.6c0.2 0.3 0.4 0.6 0.5 0.9c0.1 0.3 0.2 0.7 0.2 1.1c0 0 0 0.1 0 0.1 c0 0 0 0.1 0 0.1c0 0.1 0 0.1 0 0.2h-4.7c0 0.4 0.1 0.7 0.2 1c0.1 0.3 0.3 0.6 0.5 0.8c0.2 0.2 0.5 0.4 0.7 0.5 c0.3 0.1 0.6 0.2 0.9 0.2c0.3 0 0.5 0 0.8-0.1c0.2-0.1 0.4-0.2 0.6-0.3c0.2-0.1 0.4-0.2 0.5-0.4l0.4 0.6 c-0.2 0.2-0.4 0.3-0.6 0.4c-0.2 0.1-0.4 0.2-0.7 0.3c-0.3 0.1-0.6 0.1-0.9 0.1c-0.5 0-0.9-0.1-1.3-0.2s-0.7-0.4-1-0.7 c-0.3-0.3-0.5-0.6-0.7-1C19.6 26.6 19.5 26.2 19.5 25.7z M24.2 25.1c0-0.3-0.1-0.6-0.2-0.8c-0.1-0.2-0.2-0.4-0.4-0.6 c-0.2-0.2-0.3-0.3-0.5-0.3c-0.2-0.1-0.4-0.1-0.6-0.1c-0.3 0-0.5 0-0.7 0.1c-0.2 0.1-0.4 0.2-0.6 0.4c-0.2 0.2-0.3 0.4-0.5 0.6 c-0.1 0.2-0.2 0.5-0.3 0.8H24.2z" class="style1"/><path d="M26.9 23.4h-0.8v-0.7h0.8v-0.3c0-0.3 0-0.6 0.1-0.9c0.1-0.2 0.2-0.4 0.3-0.6c0.1-0.2 0.3-0.3 0.4-0.4 c0.2-0.1 0.3-0.2 0.5-0.2c0.2-0.1 0.3-0.1 0.5-0.1c0.1 0 0.3 0 0.4 0c0.1 0 0.1 0 0.2 0c0 0 0.1 0 0.1 0c0 0 0.1 0 0.1 0v0.7 c0 0-0.1 0-0.1 0c0 0-0.1 0-0.1 0c0 0-0.1 0-0.1 0c-0.1 0-0.3 0-0.4 0c-0.2 0-0.3 0.1-0.5 0.2c-0.1 0.1-0.3 0.3-0.4 0.5 c-0.1 0.2-0.1 0.5-0.1 0.8v0.3h1.6v0.7h-1.6v5.3h-0.8V23.4z" class="style1"/><path d="M30.1 25.7c0-0.5 0.1-0.9 0.2-1.3c0.2-0.4 0.4-0.7 0.6-1c0.3-0.3 0.6-0.5 1-0.6c0.4-0.1 0.8-0.2 1.2-0.2 c0.4 0 0.8 0.1 1.1 0.2c0.3 0.2 0.6 0.4 0.8 0.6c0.2 0.3 0.4 0.6 0.5 0.9c0.1 0.3 0.2 0.7 0.2 1.1c0 0 0 0.1 0 0.1 c0 0 0 0.1 0 0.1c0 0.1 0 0.1 0 0.2h-4.7c0 0.4 0.1 0.7 0.2 1c0.1 0.3 0.3 0.6 0.5 0.8c0.2 0.2 0.5 0.4 0.7 0.5 c0.3 0.1 0.6 0.2 0.9 0.2c0.3 0 0.5 0 0.8-0.1c0.2-0.1 0.4-0.2 0.6-0.3c0.2-0.1 0.4-0.2 0.5-0.4l0.4 0.6 c-0.2 0.2-0.4 0.3-0.6 0.4c-0.2 0.1-0.4 0.2-0.7 0.3c-0.3 0.1-0.6 0.1-0.9 0.1c-0.5 0-0.9-0.1-1.3-0.2c-0.4-0.2-0.7-0.4-1-0.7 c-0.3-0.3-0.5-0.6-0.7-1C30.1 26.6 30.1 26.2 30.1 25.7z M34.8 25.1c0-0.3-0.1-0.6-0.2-0.8c-0.1-0.2-0.2-0.4-0.4-0.6 c-0.2-0.2-0.3-0.3-0.5-0.3c-0.2-0.1-0.4-0.1-0.6-0.1c-0.3 0-0.5 0-0.7 0.1c-0.2 0.1-0.4 0.2-0.6 0.4c-0.2 0.2-0.3 0.4-0.5 0.6 c-0.1 0.2-0.2 0.5-0.3 0.8H34.8z" class="style1"/><path d="M37.2 22.7H38v1.1c0 0.1 0 0.1 0 0.2c0 0.1 0 0.1 0 0.2c0 0.1 0 0.1 0 0.1h0c0.1-0.2 0.2-0.4 0.3-0.6 c0.1-0.2 0.3-0.4 0.4-0.5c0.2-0.1 0.3-0.3 0.6-0.3c0.2-0.1 0.4-0.1 0.7-0.1c0 0 0.1 0 0.1 0c0 0 0.1 0 0.1 0c0 0 0.1 0 0.1 0v0.8 c0 0-0.1 0-0.1 0c0 0-0.1 0-0.1 0c0 0-0.1 0-0.1 0c-0.2 0-0.4 0-0.6 0.1c-0.2 0.1-0.4 0.2-0.5 0.3c-0.2 0.1-0.3 0.3-0.4 0.5 c-0.1 0.2-0.2 0.4-0.3 0.6c-0.1 0.2-0.1 0.4-0.1 0.6c0 0.2 0 0.4 0 0.6v2.6h-0.8V22.7z" class="style1"/><path d="M41.5 22.7h0.8v1.1c0 0.1 0 0.1 0 0.2c0 0.1 0 0.1 0 0.2c0 0.1 0 0.1 0 0.1h0c0.1-0.2 0.2-0.4 0.3-0.6 c0.1-0.2 0.3-0.4 0.4-0.5c0.2-0.1 0.3-0.3 0.6-0.3c0.2-0.1 0.4-0.1 0.7-0.1c0 0 0.1 0 0.1 0c0 0 0.1 0 0.1 0c0 0 0.1 0 0.1 0v0.8 c0 0-0.1 0-0.1 0c0 0-0.1 0-0.1 0c0 0-0.1 0-0.1 0c-0.2 0-0.4 0-0.6 0.1c-0.2 0.1-0.4 0.2-0.5 0.3c-0.2 0.1-0.3 0.3-0.4 0.5 c-0.1 0.2-0.2 0.4-0.3 0.6c-0.1 0.2-0.1 0.4-0.1 0.6c0 0.2 0 0.4 0 0.6v2.6h-0.8V22.7z" class="style1"/><path d="M45.3 25.7c0-0.5 0.1-0.9 0.2-1.3c0.2-0.4 0.4-0.7 0.6-1c0.3-0.3 0.6-0.5 1-0.6c0.4-0.1 0.8-0.2 1.2-0.2 c0.4 0 0.8 0.1 1.1 0.2c0.3 0.2 0.6 0.4 0.8 0.6s0.4 0.6 0.5 0.9c0.1 0.3 0.2 0.7 0.2 1.1c0 0 0 0.1 0 0.1c0 0 0 0.1 0 0.1 c0 0.1 0 0.1 0 0.2h-4.7c0 0.4 0.1 0.7 0.2 1c0.1 0.3 0.3 0.6 0.5 0.8c0.2 0.2 0.5 0.4 0.7 0.5c0.3 0.1 0.6 0.2 0.9 0.2 c0.3 0 0.5 0 0.8-0.1c0.2-0.1 0.4-0.2 0.6-0.3c0.2-0.1 0.4-0.2 0.5-0.4l0.4 0.6c-0.2 0.2-0.4 0.3-0.6 0.4 c-0.2 0.1-0.4 0.2-0.7 0.3c-0.3 0.1-0.6 0.1-0.9 0.1c-0.5 0-0.9-0.1-1.3-0.2c-0.4-0.2-0.7-0.4-1-0.7c-0.3-0.3-0.5-0.6-0.7-1 C45.4 26.6 45.3 26.2 45.3 25.7z M50.1 25.1c0-0.3-0.1-0.6-0.2-0.8c-0.1-0.2-0.2-0.4-0.4-0.6c-0.2-0.2-0.3-0.3-0.5-0.3 c-0.2-0.1-0.4-0.1-0.6-0.1c-0.3 0-0.5 0-0.7 0.1c-0.2 0.1-0.4 0.2-0.6 0.4c-0.2 0.2-0.3 0.4-0.5 0.6c-0.1 0.2-0.2 0.5-0.3 0.8 H50.1z" class="style1"/><path d="M52.1 25.7c0-0.5 0.1-0.9 0.2-1.3c0.1-0.4 0.3-0.7 0.6-1c0.2-0.3 0.5-0.5 0.9-0.6 c0.3-0.2 0.7-0.2 1.1-0.2c0.2 0 0.4 0 0.5 0.1c0.2 0 0.3 0.1 0.4 0.1c0.1 0.1 0.2 0.1 0.3 0.2c0.1 0.1 0.2 0.1 0.3 0.2 c0.2 0.2 0.3 0.4 0.4 0.6h0c0 0 0-0.1 0-0.1c0 0 0-0.1 0-0.1c0-0.1 0-0.1 0-0.2v-3h0.8v8.5h-0.8v-0.6c0-0.1 0-0.1 0-0.2 c0-0.1 0-0.1 0-0.1c0 0 0-0.1 0-0.1h0c-0.1 0.2-0.3 0.4-0.5 0.6c-0.1 0.1-0.2 0.2-0.3 0.2c-0.1 0.1-0.2 0.1-0.4 0.2 c-0.1 0.1-0.3 0.1-0.5 0.1c-0.2 0-0.3 0.1-0.6 0.1c-0.4 0-0.8-0.1-1.1-0.2c-0.3-0.2-0.6-0.4-0.8-0.7c-0.2-0.3-0.4-0.6-0.5-1 C52.1 26.6 52.1 26.2 52.1 25.7z M52.9 25.7c0 0.4 0 0.7 0.1 1c0.1 0.3 0.2 0.6 0.4 0.8c0.2 0.2 0.4 0.4 0.6 0.5 c0.2 0.1 0.5 0.2 0.8 0.2c0.3 0 0.5 0 0.7-0.1c0.2-0.1 0.5-0.2 0.6-0.4c0.2-0.2 0.3-0.5 0.4-0.8c0.1-0.3 0.2-0.7 0.2-1.1 c0-0.3 0-0.6-0.1-0.9c-0.1-0.3-0.2-0.6-0.4-0.8c-0.2-0.2-0.4-0.4-0.6-0.6c-0.2-0.1-0.5-0.2-0.9-0.2c-0.3 0-0.5 0.1-0.8 0.2 c-0.2 0.1-0.4 0.3-0.6 0.5c-0.2 0.2-0.3 0.5-0.4 0.8C53 25 52.9 25.3 52.9 25.7z" class="style1"/></g><g><path d="M12.9 37.6H9.4l-1 2.7H7.6l3.1-8.5h0.9l3.1 8.5h-0.9L12.9 37.6z M11.2 32.7c0 0.1-0.1 0.3-0.1 0.4 c0 0.1-0.1 0.2-0.1 0.4c0 0.1-0.1 0.2-0.1 0.3l-1.1 3.1h2.9l-1.1-3.1c0-0.1-0.1-0.2-0.1-0.3c0-0.1-0.1-0.2-0.1-0.4 C11.3 32.9 11.2 32.8 11.2 32.7L11.2 32.7z" class="style1"/><path d="M15.5 37.3c0-0.5 0.1-0.9 0.2-1.3c0.2-0.4 0.4-0.7 0.7-1c0.3-0.3 0.6-0.5 1-0.7c0.4-0.2 0.8-0.2 1.3-0.2 c0.4 0 0.7 0 1 0.1s0.5 0.2 0.7 0.3c0.2 0.1 0.4 0.3 0.6 0.4l-0.4 0.6c-0.1-0.1-0.3-0.3-0.5-0.4c-0.2-0.1-0.3-0.2-0.6-0.3 c-0.2-0.1-0.5-0.1-0.7-0.1c-0.3 0-0.6 0.1-0.9 0.2c-0.3 0.1-0.5 0.3-0.8 0.5c-0.2 0.2-0.4 0.5-0.5 0.8c-0.1 0.3-0.2 0.6-0.2 1 c0 0.4 0.1 0.7 0.2 1c0.1 0.3 0.3 0.6 0.5 0.8c0.2 0.2 0.5 0.4 0.8 0.5c0.3 0.1 0.6 0.2 0.9 0.2c0.3 0 0.6 0 0.8-0.1 c0.2-0.1 0.4-0.2 0.6-0.3c0.2-0.1 0.4-0.3 0.5-0.4l0.4 0.6c-0.2 0.2-0.4 0.3-0.6 0.5c-0.2 0.1-0.4 0.2-0.7 0.3s-0.6 0.1-1 0.1 c-0.5 0-0.9-0.1-1.3-0.2s-0.7-0.4-1-0.7c-0.3-0.3-0.5-0.6-0.7-1C15.6 38.2 15.5 37.7 15.5 37.3z" class="style1"/><path d="M22.1 37.3c0-0.5 0.1-0.9 0.2-1.3c0.2-0.4 0.4-0.7 0.7-1c0.3-0.3 0.6-0.5 1-0.7c0.4-0.2 0.8-0.2 1.3-0.2 c0.4 0 0.7 0 1 0.1s0.5 0.2 0.7 0.3c0.2 0.1 0.4 0.3 0.6 0.4l-0.4 0.6c-0.1-0.1-0.3-0.3-0.5-0.4c-0.2-0.1-0.3-0.2-0.6-0.3 c-0.2-0.1-0.5-0.1-0.7-0.1c-0.3 0-0.6 0.1-0.9 0.2c-0.3 0.1-0.5 0.3-0.8 0.5c-0.2 0.2-0.4 0.5-0.5 0.8c-0.1 0.3-0.2 0.6-0.2 1 c0 0.4 0.1 0.7 0.2 1c0.1 0.3 0.3 0.6 0.5 0.8c0.2 0.2 0.5 0.4 0.8 0.5c0.3 0.1 0.6 0.2 0.9 0.2c0.3 0 0.6 0 0.8-0.1 c0.2-0.1 0.4-0.2 0.6-0.3c0.2-0.1 0.4-0.3 0.5-0.4l0.4 0.6c-0.2 0.2-0.4 0.3-0.6 0.5c-0.2 0.1-0.4 0.2-0.7 0.3s-0.6 0.1-1 0.1 c-0.5 0-0.9-0.1-1.3-0.2s-0.7-0.4-1-0.7c-0.3-0.3-0.5-0.6-0.7-1C22.2 38.2 22.1 37.7 22.1 37.3z" class="style1"/><path d="M28.8 37.2c0-0.5 0.1-0.9 0.3-1.3c0.2-0.4 0.4-0.7 0.7-1c0.3-0.3 0.6-0.5 1-0.7c0.4-0.2 0.8-0.2 1.3-0.2 c0.4 0 0.9 0.1 1.3 0.2c0.4 0.2 0.7 0.4 1 0.7c0.3 0.3 0.5 0.6 0.7 1c0.2 0.4 0.3 0.8 0.3 1.3c0 0.5-0.1 0.9-0.3 1.3 c-0.2 0.4-0.4 0.7-0.7 1c-0.3 0.3-0.6 0.5-1 0.7c-0.4 0.2-0.8 0.2-1.3 0.2c-0.4 0-0.9-0.1-1.3-0.2c-0.4-0.2-0.7-0.4-1-0.7 c-0.3-0.3-0.5-0.6-0.7-1C28.9 38.1 28.8 37.7 28.8 37.2z M29.6 37.2c0 0.4 0.1 0.7 0.2 1c0.1 0.3 0.3 0.6 0.5 0.8 c0.2 0.2 0.5 0.4 0.8 0.5c0.3 0.1 0.6 0.2 0.9 0.2c0.3 0 0.6-0.1 0.9-0.2c0.3-0.1 0.5-0.3 0.8-0.5c0.2-0.2 0.4-0.5 0.5-0.8 c0.1-0.3 0.2-0.6 0.2-1c0-0.3-0.1-0.7-0.2-1c-0.1-0.3-0.3-0.5-0.5-0.8c-0.2-0.2-0.5-0.4-0.8-0.5c-0.3-0.1-0.6-0.2-0.9-0.2 c-0.3 0-0.6 0.1-0.9 0.2c-0.3 0.1-0.5 0.3-0.8 0.5c-0.2 0.2-0.4 0.5-0.5 0.8C29.7 36.6 29.6 36.9 29.6 37.2z" class="style1"/><path d="M36.7 34.2h0.8v3.7c0 0.2 0 0.5 0 0.7c0 0.2 0.1 0.4 0.2 0.6c0.1 0.2 0.2 0.3 0.4 0.4 c0.2 0.1 0.4 0.1 0.7 0.1c0.3 0 0.7-0.1 0.9-0.2c0.3-0.1 0.5-0.3 0.7-0.6c0.2-0.2 0.3-0.5 0.4-0.8c0.1-0.3 0.2-0.6 0.2-1v-2.9 h0.8v6.1h-0.8v-0.9c0-0.1 0-0.1 0-0.2c0-0.1 0-0.1 0-0.2c0-0.1 0-0.1 0-0.1h0c-0.1 0.2-0.2 0.3-0.3 0.5c-0.1 0.2-0.3 0.3-0.5 0.5 c-0.2 0.2-0.4 0.3-0.7 0.4c-0.3 0.1-0.6 0.2-0.9 0.2c-0.4 0-0.7 0-0.9-0.1c-0.3-0.1-0.5-0.2-0.6-0.4c-0.2-0.2-0.3-0.4-0.4-0.7 c-0.1-0.3-0.1-0.6-0.1-1V34.2z" class="style1"/><path d="M43.9 34.2h0.8v0.9c0 0.1 0 0.1 0 0.2c0 0.1 0 0.1 0 0.2c0 0.1 0 0.1 0 0.1h0c0.1-0.1 0.1-0.3 0.3-0.5 c0.1-0.2 0.3-0.3 0.5-0.5c0.2-0.2 0.4-0.3 0.7-0.4c0.3-0.1 0.6-0.2 1-0.2c0.4 0 0.7 0.1 1 0.2c0.3 0.1 0.5 0.3 0.6 0.5 c0.2 0.2 0.3 0.4 0.3 0.7c0.1 0.3 0.1 0.6 0.1 1v3.9h-0.8v-3.7c0-0.2 0-0.5 0-0.7c0-0.2-0.1-0.4-0.2-0.6 c-0.1-0.2-0.2-0.3-0.4-0.4c-0.2-0.1-0.4-0.1-0.7-0.1c-0.3 0-0.5 0-0.7 0.1c-0.2 0.1-0.5 0.2-0.6 0.4c-0.2 0.2-0.4 0.3-0.5 0.5 c-0.1 0.2-0.2 0.4-0.3 0.7c0 0.1-0.1 0.3-0.1 0.4c0 0.1 0 0.3 0 0.4v2.9h-0.8V34.2z" class="style1"/><path d="M51.3 35h-0.8v-0.7h0.8v-1.8h0.8v1.8h1.5V35h-1.5v3c0 0.2 0 0.4 0.1 0.6c0 0.2 0.1 0.3 0.2 0.4 c0.1 0.1 0.2 0.2 0.3 0.3c0.1 0.1 0.2 0.1 0.3 0.2c0.1 0 0.2 0.1 0.3 0.1c0.1 0 0.2 0 0.3 0c0 0 0.1 0 0.1 0c0 0 0.1 0 0.1 0 c0 0 0.1 0 0.1 0v0.7c0 0-0.1 0-0.1 0c0 0-0.1 0-0.1 0c0 0-0.1 0-0.1 0c-0.1 0-0.3 0-0.4 0s-0.3-0.1-0.5-0.1 c-0.2-0.1-0.3-0.1-0.5-0.2c-0.2-0.1-0.3-0.2-0.4-0.4c-0.1-0.2-0.2-0.4-0.3-0.6c-0.1-0.2-0.1-0.5-0.1-0.9V35z" class="style1"/><path d="M55.2 32.5h-0.8v-0.3h2v0.3h-0.8v2.1h-0.3V32.5z M56.7 32.2H57l0.6 1.3c0 0 0 0.1 0 0.1c0 0 0 0 0 0.1 c0 0 0 0 0 0.1h0c0 0 0 0 0-0.1c0 0 0 0 0-0.1c0 0 0-0.1 0-0.1l0.6-1.3h0.3l0.2 2.3h-0.3L58.4 33c0 0 0-0.1 0-0.1c0 0 0 0 0 0h0 l-0.6 1.3h-0.2l-0.6-1.3h0c0 0 0 0 0 0c0 0 0 0.1 0 0.1l-0.1 1.6h-0.3L56.7 32.2z" class="style1"/></g></g></g></svg>